<?xml version="1.0" encoding="UTF-8" standalone="no"?>
<!-- Created with Inkscape (http://www.inkscape.org/) -->

<svg
   width="693"
   height="76"
   viewBox="0 0 183.35626 20.108333"
   version="1.1"
   id="svg24"
   inkscape:version="1.1.2 (b8e25be833, 2022-02-05)"
   sodipodi:docname="2edmond.svg"
   xmlns:inkscape="http://www.inkscape.org/namespaces/inkscape"
   xmlns:sodipodi="http://sodipodi.sourceforge.net/DTD/sodipodi-0.dtd"
   xmlns="http://www.w3.org/2000/svg"
   xmlns:svg="http://www.w3.org/2000/svg">
  <sodipodi:namedview
     id="namedview26"
     pagecolor="#ffffff"
     bordercolor="#666666"
     borderopacity="1.0"
     inkscape:pageshadow="2"
     inkscape:pageopacity="0.0"
     inkscape:pagecheckerboard="0"
     inkscape:document-units="px"
     showgrid="false"
     inkscape:zoom="1"
     inkscape:cx="471.5"
     inkscape:cy="236.5"
     inkscape:window-width="2056"
     inkscape:window-height="1456"
     inkscape:window-x="333"
     inkscape:window-y="141"
     inkscape:window-maximized="0"
     inkscape:current-layer="layer1"
     units="px"
     fit-margin-top="0"
     fit-margin-left="0"
     fit-margin-right="0"
     fit-margin-bottom="0" />
  <defs
     id="defs21" />
  <g
     inkscape:label="Layer 1"
     inkscape:groupmode="layer"
     id="layer1"
     transform="translate(-0.55973518,-2.2352777)">
    <g
       id="g1344"
       transform="matrix(0.99961415,0,0,1.0159078,-0.09128921,-0.71143428)">
      <path
         style="fill:#a4e7ee;stroke-width:0.264583"
         d="m 153.48891,21.627589 c -0.21828,-0.07979 -0.66477,-0.388805 -0.99219,-0.686691 -0.85265,-0.775734 -0.84434,-2.87023 0.0148,-3.729366 0.48518,-0.485181 0.55796,-0.726978 0.35544,-1.180858 -0.17056,-0.382225 -0.15577,-0.787817 0.0447,-1.227918 0.25403,-0.557531 0.20014,-0.803481 -0.35544,-1.622162 -0.8089,-1.191992 -0.86387,-2.794075 -0.13677,-3.9865561 0.71664,-1.1753194 1.98961,-1.4726968 5.32173,-1.2432007 2.49816,0.172057 2.64885,0.2153399 2.57403,0.7393276 -0.0528,0.369429 -0.30188,0.5824022 -0.74093,0.6333935 -0.63254,0.073464 -0.65763,0.1440159 -0.57382,1.6139007 0.0743,1.303339 -0.006,1.645847 -0.52916,2.252352 -0.64403,0.746837 -2.54359,1.354215 -3.39257,1.08476 -0.32941,-0.104551 -0.5131,0.02872 -0.6269,0.45485 -0.23405,0.876439 0.46397,1.26419 2.27575,1.26419 1.63514,0 2.93716,0.487514 3.21152,1.202479 0.30743,0.801156 0.16577,2.646512 -0.24858,3.238078 -0.70187,1.002061 -1.78441,1.381982 -3.87341,1.359389 -1.06225,-0.01149 -2.10996,-0.08617 -2.32824,-0.165968 z m 4.49792,-1.665227 c 0.63417,-0.634173 0.68619,-1.657259 0.11339,-2.23006 -0.58892,-0.588915 -3.46933,-0.573486 -4.12746,0.02211 -0.59361,0.53721 -0.62947,1.759953 -0.0681,2.321344 0.64622,0.646212 3.39901,0.569746 4.08215,-0.113393 z m -0.8599,-7.59476 c 0.50862,-0.682632 0.40378,-2.121772 -0.19844,-2.7239907 -0.5757,-0.575708 -1.4415,-0.6721714 -2.48208,-0.2765433 -1.29466,0.4922271 -1.16684,2.891928 0.18428,3.45971 0.77898,0.327354 2.08988,0.08622 2.49624,-0.459176 z M 99.173277,21.38562 C 99.069582,21.281925 98.984741,18.234788 98.984741,14.614205 V 8.0313256 l 1.389059,0.042808 c 0.76399,0.023545 1.86957,-0.042665 2.45686,-0.1471335 1.44956,-0.2578502 2.8547,0.3485907 3.46937,1.4973298 0.65366,1.2216221 0.66102,5.0243451 0.0121,6.2360601 -0.72368,1.35124 -1.61771,1.787182 -3.66653,1.787847 l -1.78818,5.83e-4 -0.0764,1.984375 c -0.0733,1.904101 -0.10358,1.987542 -0.74778,2.062667 -0.369247,0.04306 -0.7562,-0.0065 -0.859893,-0.110243 z m 5.301573,-6.087915 c 0.99367,-1.095834 0.78655,-4.987878 -0.3042,-5.716188 -0.41558,-0.2774937 -1.85858,-0.247306 -2.65514,0.055546 -0.67402,0.2562624 -0.67869,0.2788568 -0.67869,3.289717 v 3.031683 l 0.72761,0.112471 c 1.23745,0.191281 2.2892,-0.08814 2.91042,-0.773229 z m 37.90156,-0.494719 V 8.0561112 h 0.79375 c 0.43656,0 0.79375,0.1137809 0.79375,0.2528467 0,0.1393635 0.48993,0.079988 1.0916,-0.1322917 1.39974,-0.4938577 2.18748,-0.4861282 3.27974,0.032182 1.24748,0.5919688 1.75885,1.8355008 1.76909,4.3019738 0.0156,3.767613 -0.98235,4.937998 -4.21056,4.937998 h -1.92987 v 2.050521 2.050521 h -0.79375 -0.79375 z m 5.09511,1.010442 c 1.09252,-0.643313 1.33668,-4.791591 0.34644,-5.8857989 -0.56516,-0.6244874 -2.08613,-0.7400135 -3.18014,-0.2415482 -0.66416,0.3026108 -0.67391,0.3502141 -0.67391,3.2905281 v 2.983475 l 0.8599,0.108892 c 0.85183,0.107871 2.2616,-0.0282 2.64771,-0.255548 z m -77.790002,4.709911 c -3.016837,-1.0422 -4.192815,-2.92612 -4.479123,-7.175561 -0.289952,-4.3035499 0.953899,-7.1688948 3.727876,-8.5875593 1.329108,-0.6797305 1.899727,-0.8033253 4.120674,-0.8925304 3.43476,-0.1379582 5.182166,0.3562033 6.72887,1.9029055 1.539201,1.5392022 2.135937,3.6928492 1.94604,7.0233572 -0.147889,2.593765 -0.660038,3.860742 -1.805599,4.466793 -0.800301,0.423394 -2.80851,0.256601 -3.342743,-0.277632 -0.346639,-0.346639 -0.55122,-0.331757 -1.758667,0.12793 -3.245374,1.235547 -5.204738,-0.303463 -5.201381,-4.085495 0.0019,-2.15062 0.361572,-3.3981015 1.209556,-4.1953329 0.618734,-0.5816979 0.937067,-0.6481437 3.398764,-0.709421 l 2.716091,-0.06761 0.171034,3.7598469 c 0.187759,4.127508 0.382546,4.649908 1.618168,4.339787 1.009079,-0.253263 1.255358,-1.216033 1.157471,-4.524831 C 79.783668,8.0827614 79.313593,6.9483566 77.531338,5.9394445 76.496762,5.3537842 76.059673,5.278896 73.717031,5.2859268 c -2.209152,0.00663 -2.828894,0.1044805 -3.754986,0.5928704 -2.183534,1.1515231 -2.99262,2.9145689 -2.990413,6.5162748 0.0019,2.912697 0.307837,4.123479 1.339241,5.298183 1.101069,1.254049 2.590578,1.768925 5.604595,1.937332 2.491984,0.139239 2.579688,0.165319 2.579688,0.767123 0,0.6143 -0.03781,0.622865 -2.711979,0.614347 -1.913705,-0.0061 -3.121033,-0.14995 -4.101659,-0.488718 z m 5.06285,-4.879298 0.762757,-0.325704 -0.05138,-2.765392 C 75.427485,11.031979 75.358025,9.7412031 75.301374,9.6845542 75.244724,9.6279052 74.6785,9.5229586 74.043095,9.4513394 73.082986,9.3431211 72.758609,9.4322574 72.123014,9.9789749 c -0.712928,0.6132361 -0.765559,0.7909221 -0.776018,2.6199111 -0.01783,3.118019 1.029115,4.056422 3.397369,3.045155 z M 2.9409853,17.11768 C 1.5877547,16.441665 1.0898085,15.242731 1.089313,12.659301 1.0889691,10.870642 1.1883678,10.366725 1.6894884,9.6165928 3.2321156,7.3074205 6.8589114,7.2035753 8.232358,9.4292522 8.6386721,10.087686 8.7550348,10.666262 8.7011725,11.760278 l -0.071645,1.455208 -3.0078441,0.0751 -3.0078439,0.0751 0.1667153,0.833577 c 0.309892,1.54946 0.770688,1.79434 3.3764381,1.79434 2.2830479,0 2.3402429,0.01527 2.3402429,0.624605 0,0.555915 -0.1527582,0.642952 -1.3890626,0.79145 -2.2283156,0.267652 -3.1804648,0.200937 -4.1671877,-0.291986 z m 4.2333336,-5.604761 c 0,-1.7286592 -1.2597962,-2.6550208 -2.9329832,-2.1567008 C 3.2793078,9.642736 2.676402,10.471786 2.676402,11.508144 c 0,0.472041 0.1944505,0.516717 2.2489584,0.516717 2.0473476,0 2.2489585,-0.04589 2.2489585,-0.511942 z m 5.0525891,5.733563 c -1.289451,-0.662674 -1.738149,-1.649602 -1.838316,-4.043444 -0.0779,-1.861691 -5.1e-5,-2.415043 0.47898,-3.404591 0.723406,-1.4943574 2.204744,-2.1654963 4.246063,-1.9237323 l 1.321101,0.1564648 V 5.9269786 3.8227778 h 0.79375 0.79375 v 6.7468752 6.746875 h -0.79375 c -0.436562,0 -0.79375,-0.105032 -0.79375,-0.233405 0,-0.128373 -0.446484,-0.07407 -0.992188,0.120678 -1.252202,0.446876 -2.399514,0.462104 -3.21564,0.04268 z m 3.529145,-1.510905 c 0.67371,-0.256144 0.678683,-0.280125 0.678683,-3.272455 V 9.4487028 l -1.11038,-0.1489332 c -1.500963,-0.2013214 -2.77745,0.3510095 -3.047391,1.3185934 -0.379024,1.358587 -0.234173,3.903145 0.265612,4.665912 0.373018,0.569298 0.669108,0.709336 1.499784,0.709336 0.569255,0 1.340417,-0.116115 1.713692,-0.258034 z m 22.273791,1.587254 c -1.842913,-0.589055 -2.784465,-2.811879 -2.421525,-5.71676 0.340164,-2.7225764 1.999736,-4.0229779 4.738529,-3.712996 2.51006,0.2840934 3.339973,1.4751145 3.339973,4.793245 0,2.273275 -0.440735,3.592955 -1.412616,4.229755 -0.791924,0.51889 -3.178101,0.747568 -4.244361,0.406756 z m 2.703515,-1.35386 c 1.037699,-0.361744 1.488906,-1.7752 1.28641,-4.029802 -0.204412,-2.2759158 -1.226437,-3.0789636 -3.218519,-2.5289234 -1.105427,0.3052233 -1.465416,1.1320784 -1.46053,3.3546694 0.0045,2.048607 0.389509,2.997771 1.321134,3.257039 0.969486,0.269806 1.159494,0.264946 2.071505,-0.05298 z m 16.533329,1.240495 c -1.430216,-0.646661 -1.805908,-1.530172 -1.805908,-4.246927 0,-3.8574972 0.967211,-5.0396783 4.121383,-5.0373912 l 1.831742,0.00133 V 5.8746269 3.8227778 h 0.926042 0.926042 v 6.7592682 6.759268 l -1.389063,-0.03834 c -0.763984,-0.02108 -1.924844,0.0347 -2.579688,0.123958 -0.785233,0.107036 -1.476608,0.03299 -2.03055,-0.21747 z m 3.635444,-1.489747 c 0.459775,-0.246064 0.511773,-0.578665 0.511773,-3.273476 V 9.4466597 L 60.388788,9.2827368 c -1.332183,-0.2130245 -2.529229,0.2184776 -2.907163,1.0479522 -0.165579,0.363406 -0.301053,1.521612 -0.301053,2.573792 0,2.506682 0.380256,3.08913 2.016773,3.08913 0.656159,0 1.423313,-0.123251 1.704787,-0.273892 z m 49.485198,1.526763 c -1.28945,-0.662674 -1.73815,-1.649602 -1.83832,-4.043444 -0.0779,-1.861691 -5e-5,-2.415043 0.47898,-3.404591 0.72341,-1.4943574 2.20475,-2.1654963 4.24607,-1.9237323 l 1.3211,0.1564648 V 5.9269786 3.8227778 h 0.79375 0.79375 v 6.7468752 6.746875 h -0.79375 c -0.43656,0 -0.79375,-0.105032 -0.79375,-0.233405 0,-0.128373 -0.44649,-0.07407 -0.99219,0.120678 -1.2522,0.446876 -2.39951,0.462104 -3.21564,0.04268 z m 3.52915,-1.510905 c 0.6737,-0.256144 0.67868,-0.280125 0.67868,-3.272455 V 9.4487028 l -1.11038,-0.1489332 c -1.50096,-0.2013214 -2.77745,0.3510095 -3.04739,1.3185934 -0.37903,1.358587 -0.23418,3.903145 0.26561,4.665912 0.37302,0.569298 0.66911,0.709336 1.49978,0.709336 0.56926,0 1.34042,-0.116115 1.7137,-0.258034 z m 53.15111,1.418684 c -1.22092,-0.602106 -1.67243,-1.772606 -1.67243,-4.33565 0,-3.7643562 0.95709,-4.887967 4.16719,-4.8922387 l 1.91823,-0.00255 V 5.8732987 3.8227778 h 0.79375 0.79375 v 6.7468752 6.746875 h -0.79375 c -0.43656,0 -0.79375,-0.105032 -0.79375,-0.233405 0,-0.128373 -0.44649,-0.07407 -0.99219,0.120678 -1.31829,0.470461 -2.39808,0.454823 -3.4208,-0.04954 z m 3.73431,-1.418684 c 0.6737,-0.256144 0.67868,-0.280125 0.67868,-3.272455 V 9.4487028 l -1.06405,-0.1427187 c -2.52116,-0.3381584 -3.52445,0.7988509 -3.37421,3.8239219 0.10802,2.175007 0.60844,2.863705 2.08079,2.863705 0.55006,0 1.30551,-0.116115 1.67879,-0.258034 z m 6.23493,1.382103 c -1.35323,-0.676015 -1.85118,-1.874949 -1.85168,-4.458379 -2.6e-4,-1.788659 0.0991,-2.292576 0.60018,-3.0427082 1.54263,-2.3091723 5.16942,-2.4130175 6.54287,-0.1873406 0.40631,0.6584338 0.52268,1.2370098 0.46881,2.3310258 l -0.0716,1.455208 -3.00784,0.0751 -3.00785,0.0751 0.16672,0.833577 c 0.30989,1.54946 0.77068,1.79434 3.37644,1.79434 2.28304,0 2.34024,0.01527 2.34024,0.624605 0,0.555915 -0.15276,0.642952 -1.38906,0.79145 -2.22832,0.267652 -3.18047,0.200937 -4.16719,-0.291986 z m 4.23333,-5.604761 c 0,-1.7286592 -1.25979,-2.6550208 -2.93298,-2.1567008 -0.96203,0.2865178 -1.56494,1.1155678 -1.56494,2.1519258 0,0.472041 0.19446,0.516717 2.24896,0.516717 2.04735,0 2.24896,-0.04589 2.24896,-0.511942 z M 20.403486,12.673927 V 8.0313256 l 1.389063,0.048143 c 0.763984,0.026479 1.836644,-0.043232 2.383689,-0.1549132 0.707398,-0.1444178 1.33379,-0.073528 2.169101,0.2454799 0.870488,0.3324423 1.307787,0.3771905 1.68953,0.1728874 0.883626,-0.4729025 3.282635,-0.6098148 4.010285,-0.2288683 1.258988,0.6591179 1.586634,1.8351893 1.58709,5.6967446 l 4.1e-4,3.505729 h -0.767792 -0.767789 l -0.09211,-3.531622 C 31.898469,9.7014389 31.753871,9.3693685 30.094529,9.3976242 c -2.203953,0.03753 -2.159736,-0.052227 -2.056784,4.1748278 l 0.09119,3.744076 H 27.176627 26.22432 v -3.290067 c 0,-1.809538 -0.116116,-3.595475 -0.258035,-3.96875 -0.225262,-0.5924845 -0.412295,-0.6786831 -1.472602,-0.6786831 -2.221057,0 -2.238113,0.032332 -2.238113,4.2426431 v 3.694857 h -0.926042 -0.926042 z m 25.400002,0.01239 V 8.0561112 h 0.79375 c 0.436562,0 0.79375,0.1051362 0.79375,0.2336361 0,0.1284999 0.506015,0.058244 1.124479,-0.1561232 1.273799,-0.4415163 2.826578,-0.3233261 3.756406,0.2859199 0.843076,0.5524039 1.204532,2.352764 1.204532,5.99959 v 2.897394 h -0.926042 -0.926042 v -3.456977 c 0,-1.901338 -0.123251,-3.687275 -0.273891,-3.9687504 -0.308383,-0.5762167 -2.073508,-0.7127338 -3.28076,-0.253738 l -0.678682,0.2580346 v 3.7107158 3.710715 h -0.79375 -0.79375 z m 37.835418,0 V 8.0561112 h 0.79375 c 0.436563,0 0.79375,0.1050325 0.79375,0.2334054 0,0.1283729 0.446485,0.074068 0.992188,-0.1206783 1.298191,-0.4632881 1.99934,-0.4610719 3.126494,0.00988 0.824704,0.3445838 1.111097,0.3388251 2.60246,-0.052329 1.406219,-0.3688228 1.851377,-0.3869113 2.767444,-0.1124508 1.67852,0.502897 1.972411,1.2942152 2.103777,5.6645655 l 0.109355,3.638022 H 95.972057 95.01599 v -3.456977 c 0,-1.901338 -0.123251,-3.687275 -0.273891,-3.9687505 -0.21395,-0.3997671 -0.54691,-0.5077028 -1.521354,-0.4931764 -2.303026,0.034332 -2.234071,-0.096786 -2.188684,4.1617389 l 0.04005,3.757165 h -0.780225 -0.780222 l -0.09211,-3.531622 C 89.354608,11.294685 89.220371,10.124385 88.964324,9.8161561 88.554971,9.3233818 86.973622,9.2308065 85.905089,9.6370626 l -0.678683,0.2580346 v 3.7107158 3.710715 h -0.79375 -0.79375 z M 118.82849,10.569653 V 3.8227778 h 0.79375 0.79375 v 6.7468752 6.746875 h -0.79375 -0.79375 z m 3.96875,5.688542 c 0,-1.033135 0.022,-1.058334 0.92604,-1.058334 0.904,0 0.92605,0.0252 0.92605,1.058334 0,1.033135 -0.022,1.058333 -0.92605,1.058333 -0.90399,0 -0.92604,-0.0252 -0.92604,-1.058333 z m 4.23334,-3.571875 V 8.0561112 h 0.79375 c 0.43656,0 0.79375,0.1129872 0.79375,0.2510825 0,0.1380955 0.41289,0.078564 0.91754,-0.1322917 1.16298,-0.485925 2.03149,-0.4848887 3.20114,0.00382 0.8247,0.3445838 1.11109,0.3388251 2.60246,-0.052329 1.41826,-0.3719812 1.84692,-0.3882465 2.78949,-0.1058458 1.60858,0.481942 1.86645,1.2716111 1.86645,5.7156068 v 3.580373 h -0.79375 -0.79375 v -3.380712 c 0,-4.074412 -0.20987,-4.5670773 -1.93323,-4.5381914 -2.17381,0.036436 -2.12421,-0.063944 -2.05843,4.1663064 l 0.0584,3.752597 h -0.77153 -0.77152 l -0.15207,-3.419288 c -0.18599,-4.1818945 -0.33031,-4.5182117 -1.93891,-4.5182117 -2.20331,0 -2.22225,0.036175 -2.22225,4.2426427 v 3.694857 h -0.79375 -0.79375 z m 34.66041,3.571875 c 0,-1.033135 0.022,-1.058334 0.92605,-1.058334 0.90399,0 0.92604,0.0252 0.92604,1.058334 0,1.033135 -0.022,1.058333 -0.92604,1.058333 -0.904,0 -0.92605,-0.0252 -0.92605,-1.058333 z"
         id="path1358" />
      <path
         style="fill:#f0d8a0;stroke-width:0.264583"
         d="m 153.48891,21.627589 c -0.21828,-0.07979 -0.66477,-0.388805 -0.99219,-0.686691 -0.85265,-0.775734 -0.84434,-2.87023 0.0148,-3.729366 0.48518,-0.485181 0.55796,-0.726978 0.35544,-1.180858 -0.17056,-0.382225 -0.15577,-0.787817 0.0447,-1.227918 0.25403,-0.557531 0.20014,-0.803481 -0.35544,-1.622162 -0.75945,-1.119113 -0.8611,-2.63526 -0.25524,-3.806862 0.66837,-1.2924917 1.08825,-1.3953651 5.48736,-1.3444276 2.12979,0.024661 2.31511,0.069167 2.31511,0.5559735 0,0.4105958 -0.17639,0.5291667 -0.7872,0.5291667 -0.73568,0 -0.77031,0.044416 -0.52916,0.6786827 0.55979,1.4723547 0.0529,3.5038477 -0.98895,3.9638587 -0.26005,0.114813 -1.12766,0.278069 -1.92802,0.362792 -1.40628,0.148862 -1.45521,0.180731 -1.45521,0.947792 v 0.79375 l 2.16461,0.140958 c 2.45328,0.159755 3.14419,0.563608 3.41268,1.994787 0.45256,2.412372 -1.17503,3.818837 -4.38666,3.790681 -0.94589,-0.0083 -1.89839,-0.08036 -2.11667,-0.160157 z m 3.50573,-1.132448 c 0.67097,-0.0052 1.52135,-0.957992 1.52135,-1.704505 0,-1.166684 -0.65044,-1.504419 -2.73276,-1.41895 -1.70203,0.06986 -1.91495,0.140933 -2.25796,0.753726 -0.76605,1.368571 0.69,2.824123 2.47718,2.476322 0.29104,-0.05664 0.73753,-0.104606 0.99219,-0.106593 z m 0.12301,-8.106424 c 0.51638,-0.706195 0.4177,-2.138246 -0.18916,-2.7451057 -0.63875,-0.6387516 -2.02561,-0.6957955 -2.85154,-0.1172888 -0.80148,0.5613785 -0.81721,2.2693735 -0.0282,3.0584225 0.45125,0.451256 0.77029,0.531663 1.64436,0.414425 0.59646,-0.08 1.23748,-0.354706 1.42449,-0.610453 z M 99.17229,21.384634 C 99.069137,21.281481 98.984741,18.240365 98.984741,14.626597 V 8.0561112 h 0.79375 c 0.436559,0 0.793749,0.1161156 0.793749,0.2580347 0,0.1604301 0.27523,0.149153 0.7276,-0.029813 1.01849,-0.4029216 3.23394,-0.2938034 3.98164,0.1961078 0.34465,0.2258187 0.79527,0.8142135 1.0014,1.3075437 0.51004,1.2206916 0.47985,4.3448096 -0.0549,5.6812706 -0.57009,1.424802 -1.50608,1.885613 -3.8152,1.878315 l -1.81875,-0.0057 -0.077,2.037874 c -0.0688,1.81991 -0.13481,2.046143 -0.617105,2.115181 -0.29703,0.04252 -0.624451,-0.0071 -0.727605,-0.110243 z m 5.12447,-5.899837 c 0.70812,-0.708119 0.7734,-0.930387 0.7734,-2.633384 0,-3.1693972 -0.87229,-4.1337937 -3.11092,-3.4393936 l -1.25471,0.3891994 -0.0744,3.0752142 c -0.0828,3.425289 -0.15918,3.289239 1.88065,3.35107 0.79031,0.02396 1.18228,-0.13905 1.78594,-0.742706 z m 38.07965,-0.664236 V 8.0561112 h 0.79375 c 0.43656,0 0.79375,0.1161156 0.79375,0.2580347 0,0.1676574 0.23771,0.1676574 0.67868,0 0.37328,-0.1419191 1.33494,-0.2580347 2.13702,-0.2580347 1.24903,0 1.56609,0.1077497 2.20907,0.7507352 0.87997,0.8799653 1.20258,2.4632286 0.98681,4.8428406 -0.25179,2.776785 -1.29076,3.706986 -4.13042,3.698011 l -1.85936,-0.0059 -0.0771,2.037874 c -0.0758,2.004673 -0.0889,2.039238 -0.80465,2.121594 l -0.7276,0.08372 z m 4.77716,1.165207 c 0.95065,-0.508777 1.37216,-1.770165 1.25925,-3.768427 -0.0925,-1.636644 -0.18927,-1.916963 -0.86156,-2.4952376 -0.62264,-0.5355715 -0.92585,-0.619854 -1.70447,-0.4737839 -1.88096,0.3528714 -1.88288,0.3566298 -1.88288,3.6898435 0,2.161518 0.0933,3.049013 0.33073,3.144803 0.59571,0.240376 2.3389,0.181111 2.85893,-0.0972 z m -76.818576,4.746114 c -2.215158,-0.521608 -3.874169,-1.947124 -4.557924,-3.916424 -0.668346,-1.92491 -0.804424,-5.407841 -0.290542,-7.4364301 0.601149,-2.3730911 1.55987,-3.6553482 3.459441,-4.6268904 1.467765,-0.7506929 1.736563,-0.7970598 4.619958,-0.7969266 3.466574,1.602e-4 4.762389,0.4082854 6.29076,1.9813155 1.252128,1.2887146 1.666526,2.8040778 1.659742,6.0693216 -0.0066,3.175548 -0.527941,4.843104 -1.623451,5.192735 -1.046504,0.333989 -2.87564,0.193638 -3.375832,-0.25903 -0.428842,-0.388096 -0.554263,-0.388475 -1.473375,-0.0044 -1.474349,0.616023 -3.421351,0.601282 -4.131088,-0.03128 -0.875602,-0.780385 -1.29685,-2.041733 -1.295218,-3.878284 0.0019,-2.150864 0.361604,-3.3981901 1.209816,-4.1953329 0.623429,-0.5858933 0.923139,-0.6463263 3.439985,-0.6936346 l 2.757057,-0.051824 v 3.4080365 c 0,1.87442 0.116115,3.713444 0.258035,4.086719 0.294436,0.774425 1.179176,0.908089 2.006499,0.303136 0.462201,-0.337969 0.513591,-0.715233 0.513591,-3.770312 0,-4.2669647 -0.348123,-5.1291104 -2.527189,-6.2587362 -1.340337,-0.6948284 -1.618634,-0.7407823 -3.963263,-0.6544356 -2.159524,0.07953 -2.695644,0.1948043 -3.732779,0.8026057 -1.489318,0.872799 -1.969206,1.5801293 -2.514619,3.7064218 -0.509915,1.9879133 -0.370795,5.0723103 0.30443,6.7494263 0.893027,2.218093 3.077491,3.24016 6.925191,3.24016 1.983084,0 2.200937,0.04958 2.200937,0.500859 0,0.275473 -0.18833,0.573129 -0.418515,0.661459 -0.61168,0.234724 -4.576305,0.146192 -5.741647,-0.128214 z m 4.144727,-4.966757 1.027272,-0.453825 -0.05131,-2.761874 C 75.427464,11.030395 75.354762,9.7379395 75.294125,9.677302 75.233488,9.6166643 74.614458,9.5123377 73.918503,9.4454656 71.99925,9.2610494 71.397362,9.8640801 71.254035,12.114999 c -0.131826,2.070311 0.04285,2.913677 0.749935,3.620759 0.62547,0.625471 1.113319,0.631258 2.475751,0.02937 z M 3.6824547,17.302619 C 1.7726868,16.98469 1.0883911,15.751022 1.0898909,12.628672 1.0909722,10.377581 1.5433167,9.2577628 2.7784638,8.4484632 3.6799999,7.8577542 6.1315141,7.879074 7.1599184,8.4865674 8.0864001,9.0338536 8.761819,10.527983 8.761819,12.030215 v 1.05298 H 5.7191105 2.676402 v 0.89673 c 0,0.493201 0.2277054,1.177811 0.506012,1.521354 0.4604432,0.568374 0.7165443,0.626113 2.843832,0.64116 1.976732,0.01398 2.3511244,0.08562 2.4239591,0.463821 0.047377,0.246007 -0.071488,0.498296 -0.2641441,0.560643 -0.657025,0.212625 -3.5228569,0.298987 -4.5036063,0.135716 z M 7.0894493,11.075211 C 6.8892938,9.841798 6.5237912,9.4298748 5.4509436,9.2286073 3.863838,8.9308645 2.9707581,9.5722587 2.5705462,11.297257 l -0.1688093,0.727604 h 2.4209096 2.4209099 z m 5.0747547,6.13514 c -1.222796,-0.620087 -1.676747,-1.64459 -1.775612,-4.007313 -0.07736,-1.848676 0.0013,-2.417769 0.466925,-3.3796884 0.698635,-1.4431873 1.491023,-1.8188641 3.790981,-1.797331 l 1.788238,0.016742 V 5.9327693 3.8227778 h 0.79375 0.79375 v 6.7468752 6.746875 h -0.79375 c -0.436562,0 -0.79375,-0.112869 -0.79375,-0.25082 0,-0.15583 -0.275554,-0.159278 -0.727604,-0.0091 -1.1769,0.390977 -2.925479,0.466857 -3.542928,0.153745 z m 3.542928,-1.451551 0.727604,-0.281258 v -3.018398 c 0,-2.9065319 -0.02206,-3.0243115 -0.595312,-3.1779362 -1.220778,-0.3271557 -2.288183,-0.1645381 -3.013146,0.4590481 -0.627146,0.5394491 -0.742914,0.8671251 -0.838894,2.3744491 -0.13316,2.091243 0.04247,2.913609 0.7797,3.650838 0.580824,0.580824 1.425041,0.578887 2.940048,-0.0067 z m 22.756943,1.547034 c -0.636291,-0.08874 -1.404212,-0.421837 -1.774529,-0.769731 -1.233103,-1.158441 -1.52296,-4.998138 -0.523242,-6.9313757 0.69351,-1.3411042 1.566497,-1.6509929 4.438121,-1.5754229 1.553091,0.040871 2.70968,1.3181923 2.952364,3.2605486 0.568269,4.548295 -1.140738,6.567133 -5.092714,6.015981 z m 2.433582,-1.355335 c 0.877674,-0.399895 1.306735,-1.955861 1.118159,-4.054932 -0.167273,-1.861907 -0.955866,-2.7811224 -2.38592,-2.7811224 -1.838574,0 -2.768918,1.7075554 -2.425949,4.4525904 0.290795,2.327454 1.750031,3.269064 3.69371,2.383464 z m 16.816267,1.33588 c -1.805342,-0.37786 -2.627971,-2.305967 -2.307717,-5.408914 0.305358,-2.9586507 1.33853,-3.9200394 4.136837,-3.8494202 l 1.870861,0.047214 V 5.9490182 3.8227778 h 0.79375 0.79375 v 6.7468752 6.746875 h -0.79375 c -0.436562,0 -0.79375,-0.126089 -0.79375,-0.280198 0,-0.154109 -0.111106,-0.21153 -0.246904,-0.127603 -0.543777,0.336072 -2.585085,0.559324 -3.453077,0.377652 z m 3.232089,-1.590144 c 0.405305,-0.216913 0.467892,-0.65238 0.467892,-3.2555 0,-3.3288574 0.0014,-3.3262904 -1.814851,-3.3262904 -1.971583,0 -2.862027,1.4827344 -2.603386,4.3350574 0.120332,1.327052 0.273658,1.72173 0.867214,2.232285 0.586211,0.504237 0.898136,0.586986 1.66814,0.442533 0.520903,-0.09772 1.157652,-0.290361 1.414991,-0.428085 z m 49.378617,1.514116 c -1.2228,-0.620087 -1.67675,-1.64459 -1.77562,-4.007313 -0.0773,-1.848676 0.001,-2.417769 0.46693,-3.3796884 0.69863,-1.4431873 1.49102,-1.8188641 3.79098,-1.797331 l 1.78824,0.016742 V 5.9327693 3.8227778 h 0.79375 0.79375 v 6.7468752 6.746875 h -0.79375 c -0.43656,0 -0.79375,-0.112869 -0.79375,-0.25082 0,-0.15583 -0.27555,-0.159278 -0.72761,-0.0091 -1.17689,0.390977 -2.92548,0.466857 -3.54292,0.153745 z m 3.54292,-1.451551 0.72761,-0.281258 v -3.018398 c 0,-2.9065319 -0.0221,-3.0243115 -0.59531,-3.1779362 -1.22078,-0.3271557 -2.28819,-0.1645381 -3.01315,0.4590481 -0.62715,0.5394491 -0.74291,0.8671251 -0.83889,2.3744491 -0.13316,2.091243 0.0425,2.913609 0.7797,3.650838 0.58082,0.580824 1.42504,0.578887 2.94004,-0.0067 z m 53.12261,1.350523 c -1.14259,-0.553371 -1.595,-1.770404 -1.595,-4.290712 0,-3.7713124 0.89219,-4.8084976 4.12179,-4.7916362 l 1.96363,0.010252 V 5.9300023 3.8227778 h 0.79375 0.79375 v 6.7468752 6.746875 h -0.79375 c -0.43656,0 -0.79375,-0.131801 -0.79375,-0.292891 0,-0.178824 -0.18033,-0.214919 -0.46302,-0.09268 -1.04278,0.450892 -3.26178,0.549169 -4.0274,0.178369 z m 3.76281,-1.350523 0.72761,-0.281258 v -3.018398 c 0,-2.9065319 -0.0221,-3.0243115 -0.59531,-3.1779362 -1.61115,-0.4317707 -3.13112,0.016991 -3.60885,1.0654872 -0.16157,0.354603 -0.29376,1.53751 -0.29376,2.628684 0,1.778541 0.0705,2.05445 0.6809,2.664848 0.71736,0.717363 1.46603,0.746097 3.08941,0.118573 z m 7.02533,1.543819 c -1.90977,-0.317929 -2.59407,-1.551597 -2.59257,-4.673947 0.001,-2.251091 0.45343,-3.3709092 1.68858,-4.1802088 0.90153,-0.590709 3.35305,-0.5693892 4.38145,0.038104 0.92648,0.5472862 1.6019,2.0414158 1.6019,3.5436478 v 1.05298 h -3.04271 -3.04271 v 0.89673 c 0,0.493201 0.22771,1.177811 0.50602,1.521354 0.46044,0.568374 0.71654,0.626113 2.84383,0.64116 1.97673,0.01398 2.35112,0.08562 2.42396,0.463821 0.0474,0.246007 -0.0715,0.498296 -0.26415,0.560643 -0.65702,0.212625 -3.52285,0.298987 -4.5036,0.135716 z m 3.40699,-6.227408 c -0.20015,-1.233413 -0.56566,-1.6453362 -1.6385,-1.8466037 -1.58711,-0.2977428 -2.48019,0.3436514 -2.8804,2.0686497 l -0.16881,0.727604 h 2.42091 2.42091 z M 20.403486,12.68632 V 8.0561112 h 0.79375 c 0.436563,0 0.79375,0.1161156 0.79375,0.2580347 0,0.1604301 0.275225,0.149153 0.727605,-0.029813 0.974022,-0.3853331 3.222186,-0.3015039 3.904541,0.1455923 0.465346,0.3049074 0.659736,0.3023195 1.268976,-0.016894 0.758711,-0.3975291 3.178111,-0.5340617 4.126997,-0.2328968 1.094772,0.3474672 1.446586,1.5841041 1.564244,5.4983716 l 0.109354,3.638021 h -0.797814 -0.797816 l -0.09211,-3.595468 C 31.917751,10.316408 31.879712,10.098759 31.288239,9.6200171 30.574504,9.0423192 30.192324,9.0073846 28.804008,9.3929392 l -0.992188,0.275545 v 3.8240218 3.824022 h -0.773753 -0.773751 l -0.08614,-3.726061 C 26.100441,10.228274 26.040352,9.8259812 25.562862,9.4709328 25.199659,9.2008662 24.712119,9.1273936 24.00837,9.2366697 21.961742,9.5544642 21.990986,9.4908985 21.990986,13.621671 v 3.694857 h -0.79375 -0.79375 z m 25.400002,0 V 8.0561112 h 0.79375 c 0.436562,0 0.79375,0.1232517 0.79375,0.2738925 0,0.1888008 0.158996,0.1888008 0.511773,0 0.281474,-0.1506408 1.227336,-0.2738925 2.101911,-0.2738925 1.298845,0 1.726134,0.1168593 2.3325,0.6379168 l 0.742358,0.6379165 0.08521,3.9922925 0.08521,3.992291 h -0.81281 -0.812814 v -3.571875 c 0,-3.219097 -0.05226,-3.624138 -0.529166,-4.1010417 -0.610389,-0.610388 -0.917975,-0.638751 -2.528671,-0.2331734 l -1.175496,0.2959934 v 3.8050487 3.805048 h -0.79375 -0.79375 z m 37.835418,0 V 8.0561112 h 0.79375 c 0.436563,0 0.79375,0.1232517 0.79375,0.2738925 0,0.1888008 0.158997,0.1888008 0.511773,0 0.696569,-0.3727929 3.54229,-0.3473315 3.924735,0.035115 0.235622,0.2356215 0.55395,0.2356215 1.340384,0 0.567259,-0.1699543 1.695535,-0.309008 2.507282,-0.309008 1.178377,0 1.625552,0.1286518 2.218261,0.6381893 l 0.742358,0.6381893 0.09041,3.9920197 0.09041,3.992018 H 95.834008 95.01599 v -3.571875 c 0,-3.219097 -0.05226,-3.624138 -0.529166,-4.1010412 C 93.880131,9.0369201 93.565536,9.0056937 92.008911,9.3976572 l -1.124739,0.2832124 0.114858,3.8178294 0.114859,3.817829 H 90.286814 89.45974 L 89.43337,14.207674 C 89.40219,10.532501 89.263286,9.9086844 88.36366,9.4037379 87.791893,9.0828129 87.49489,9.0772476 86.456421,9.3680009 L 85.22641,9.7123826 v 3.8020724 3.802073 H 84.43266 83.63891 Z M 118.82849,10.569653 V 3.8227778 h 0.79375 0.79375 v 6.7468752 6.746875 h -0.79375 -0.79375 z m 3.96875,5.688542 c 0,-1.033135 0.022,-1.058334 0.92604,-1.058334 0.904,0 0.92605,0.0252 0.92605,1.058334 0,1.033135 -0.022,1.058333 -0.92605,1.058333 -0.90399,0 -0.92604,-0.0252 -0.92604,-1.058333 z m 4.23334,-3.571875 V 8.0561112 h 0.63941 c 0.35167,0 0.68478,0.1361358 0.74025,0.3025241 0.0736,0.2207485 0.27381,0.209953 0.74073,-0.039937 0.79637,-0.4262017 3.10274,-0.3666125 3.82352,0.098787 0.442,0.2853929 0.68047,0.2862985 1.33213,0.00506 1.12428,-0.4852165 3.84629,-0.4623935 4.56105,0.038243 0.84652,0.5929243 1.12436,1.9783007 1.12601,5.6145947 l 10e-4,3.241146 h -0.79375 -0.79375 v -3.324686 c 0,-1.828577 -0.12179,-3.552254 -0.27065,-3.830394 -0.48339,-0.9032359 -1.22888,-1.1208859 -2.6618,-0.7771331 l -1.30088,0.3120763 v 3.8100688 3.810068 h -0.62151 c -0.61239,0 -0.62375,-0.05021 -0.77358,-3.419288 -0.0836,-1.880608 -0.28365,-3.66514 -0.44446,-3.9656257 -0.40325,-0.7534673 -1.37795,-0.9376141 -2.71818,-0.513532 l -1.13082,0.3578209 -0.0734,3.7703128 -0.0734,3.770312 h -0.65419 -0.65419 z m 34.66041,3.571875 c 0,-0.999537 0.0441,-1.058334 0.79375,-1.058334 0.74966,0 0.79375,0.0588 0.79375,1.058334 0,0.999537 -0.0441,1.058333 -0.79375,1.058333 -0.74965,0 -0.79375,-0.0588 -0.79375,-1.058333 z"
         id="path1356" />
      <path
         style="fill:#a9a168;stroke-width:0.264583"
         d="m 153.28846,21.419139 c -1.4595,-0.634308 -1.85287,-2.712466 -0.76022,-4.016165 0.45989,-0.548721 0.59401,-0.968821 0.5036,-1.577415 -0.0678,-0.456231 0.003,-1.066324 0.1584,-1.355761 0.22456,-0.419578 0.17588,-0.621962 -0.24013,-0.998443 -1.28395,-1.161966 -1.13069,-3.907156 0.27422,-4.9115491 0.72903,-0.5212 1.17201,-0.5728083 4.56406,-0.5317307 2.12937,0.025786 2.3151,0.07049 2.3151,0.5572027 0,0.4105958 -0.17639,0.5291667 -0.7872,0.5291667 -0.73568,0 -0.77031,0.044416 -0.52916,0.6786827 0.55979,1.4723547 0.0529,3.5038477 -0.98895,3.9638587 -0.26005,0.114813 -1.12766,0.278069 -1.92802,0.362792 -1.40628,0.148862 -1.45521,0.180731 -1.45521,0.947792 v 0.79375 l 2.16461,0.140958 c 2.45328,0.159755 3.14419,0.563608 3.41268,1.994787 0.27862,1.48517 -0.31677,2.738623 -1.57148,3.308361 -1.3168,0.597934 -3.88711,0.654883 -5.1323,0.113713 z m 4.76451,-1.400678 c 0.55777,-0.485097 0.61392,-1.982742 0.0906,-2.417038 -0.23065,-0.191427 -1.10838,-0.279288 -2.306,-0.230834 -1.75999,0.07121 -1.9676,0.138978 -2.31232,0.754823 -0.53418,0.954322 0.05,2.163633 1.15679,2.394664 1.10862,0.231412 2.82108,-0.02341 3.37091,-0.501615 z m -1.21358,-7.325969 c 0.30679,-0.214886 0.63114,-0.682874 0.72076,-1.039972 0.17906,-0.713439 -0.22026,-2.0160316 -0.71435,-2.3302015 -0.542,-0.3446309 -2.15527,-0.2257682 -2.76885,0.204004 -0.78441,0.5494175 -0.81784,2.2687425 -0.0589,3.0277055 0.62971,0.629714 2.02237,0.698063 2.82131,0.138464 z M 99.249324,14.821388 V 8.0561112 h 0.639411 c 0.351675,0 0.681575,0.126491 0.733105,0.2810913 0.0661,0.1983994 0.31119,0.1983994 0.83302,0 1.11297,-0.4231485 3.1434,-0.3438277 3.84896,0.1503629 0.33879,0.2372995 0.782,0.828788 0.98491,1.3144186 0.505,1.208626 0.47146,4.337154 -0.0607,5.667271 -0.57009,1.424802 -1.50608,1.885613 -3.8152,1.878315 l -1.81875,-0.0057 -0.077,2.037874 c -0.0713,1.884612 -0.12182,2.044233 -0.672364,2.122422 l -0.595312,0.08455 V 14.82139 Z m 5.317866,0.676409 c 1.05472,-1.302528 0.93961,-4.647851 -0.19912,-5.7865783 -0.69484,-0.6948342 -1.45982,-0.7191132 -3.06823,-0.097379 l -0.7276,0.2812576 v 3.0298567 c 0,3.43582 -0.0525,3.360083 2.23214,3.218052 0.94846,-0.05896 1.43115,-0.235634 1.76281,-0.645209 z m 38.0738,-0.676409 V 8.0561112 h 0.63941 c 0.35168,0 0.68479,0.1361358 0.74025,0.3025241 0.0757,0.2269768 0.24201,0.2269768 0.66612,0 0.3109,-0.1663883 1.2371,-0.3025241 2.05822,-0.3025241 1.28706,0 1.5965,0.1035389 2.24369,0.7507352 0.87997,0.8799653 1.20258,2.4632286 0.98681,4.8428406 -0.25179,2.776785 -1.29076,3.706986 -4.13042,3.698011 l -1.85936,-0.0059 -0.0771,2.037874 c -0.0712,1.884611 -0.12181,2.044233 -0.67235,2.122422 l -0.59532,0.08455 z m 4.59988,1.137902 c 0.89492,-0.407751 1.32191,-1.578842 1.30314,-3.574034 -0.0256,-2.7242632 -1.1405,-3.6899926 -3.40473,-2.9492593 l -1.04308,0.3412408 -0.0752,3.0208105 c -0.0558,2.238736 0.0127,3.076634 0.26458,3.236428 0.49527,0.314255 2.19553,0.270999 2.95532,-0.07519 z m -76.698839,4.815239 c -2.421877,-0.585826 -4.100786,-2.122477 -4.770099,-4.365919 -0.508821,-1.705491 -0.50791,-6.004892 0.0016,-7.7207211 0.522417,-1.7591678 1.909667,-3.3228167 3.632473,-4.0943691 1.197359,-0.5362332 1.822852,-0.627641 4.310989,-0.6299974 3.304098,-0.00313 4.635254,0.4246433 6.139656,1.973004 1.252128,1.2887146 1.666526,2.8040778 1.659742,6.0693216 -0.0094,4.522377 -0.774409,5.578313 -3.877895,5.352602 -0.317029,-0.02306 -0.766672,-0.232179 -0.999209,-0.464716 -0.387337,-0.387337 -0.516031,-0.385488 -1.534565,0.02205 -1.275707,0.510436 -3.071702,0.580134 -3.874728,0.150367 -1.005946,-0.538391 -1.459934,-1.822798 -1.454537,-4.115246 0.0094,-4.0015515 0.915231,-4.8851279 4.951366,-4.8298543 l 2.297512,0.031464 v 3.3741583 c 0,4.028617 0.194651,4.731524 1.310269,4.731524 1.167943,0 1.665283,-0.936422 1.808158,-3.4045 C 80.313697,9.900708 79.852245,8.0049879 78.656932,6.7497106 77.413789,5.4442022 76.006074,5.0550805 73.03711,5.1962746 c -1.855732,0.088253 -2.485438,0.235599 -3.468193,0.8115319 -1.478883,0.8666835 -1.959679,1.5771069 -2.504319,3.7003848 -0.509915,1.9879137 -0.370795,5.0723107 0.30443,6.7494267 0.893027,2.218093 3.077491,3.24016 6.925191,3.24016 1.983084,0 2.200937,0.04958 2.200937,0.500859 0,0.275473 -0.18833,0.573129 -0.418515,0.661459 -0.56296,0.216028 -4.542108,0.154509 -5.53461,-0.08557 z m 3.921617,-4.938081 1.237758,-0.421746 v -2.854687 c 0,-3.1924017 0.01569,-3.1692353 -2.153502,-3.1773742 -1.586688,-0.00595 -2.163236,0.6808052 -2.293869,2.7323582 -0.131826,2.070311 0.04285,2.913677 0.749935,3.620759 0.631886,0.631888 0.871868,0.641712 2.459678,0.10069 z M 3.8232263,17.367577 C 1.9829834,17.189072 0.92148856,15.110009 1.156868,12.145197 1.3893452,9.2169437 2.4876186,8.0183136 4.9382242,8.0183136 c 0.892048,0 1.7268614,0.1759488 2.2216942,0.4682538 0.9264817,0.5472862 1.6019006,2.0414156 1.6019006,3.5436476 v 1.05298 H 5.7191105 2.676402 v 0.89673 c 0,0.493201 0.2277054,1.177811 0.506012,1.521354 0.4604432,0.568374 0.7165443,0.626113 2.843832,0.64116 1.976732,0.01398 2.3511244,0.08562 2.4239591,0.463821 0.047377,0.246007 -0.071488,0.498296 -0.2641441,0.560643 -0.5059215,0.163725 -3.3806119,0.29595 -4.3628347,0.200674 z m 3.3510926,-6.148492 c 0,-1.8791278 -2.4849457,-2.8187479 -3.8484852,-1.4552087 C 2.9686463,10.121064 2.676402,10.587576 2.676402,10.80057 c 0,0.212994 -0.07227,0.575594 -0.1605992,0.805777 -0.1392003,0.36275 0.1604593,0.418514 2.2489584,0.418514 h 2.4095577 z m 5.6654461,6.088771 C 11.726684,17.074203 11.476256,16.888849 10.95208,15.910688 10.317613,14.726717 10.322172,10.902194 10.959467,9.712249 11.680226,8.3664614 12.453468,8.0054864 14.573,8.0253307 l 1.861736,0.01743 V 5.9327693 3.8227778 h 0.79375 0.79375 v 6.7468752 6.746875 h -0.79375 c -0.436562,0 -0.79375,-0.126089 -0.79375,-0.280198 0,-0.154109 -0.111107,-0.21153 -0.246904,-0.127603 -0.516528,0.319232 -2.565223,0.563461 -3.348067,0.399129 z m 2.419475,-1.345655 1.175496,-0.295993 v -3.112731 c 0,-3.0043588 -0.02073,-3.1182862 -0.595312,-3.2722692 -1.220778,-0.3271557 -2.288183,-0.1645381 -3.013146,0.4590481 -0.627146,0.5394491 -0.742914,0.8671251 -0.838894,2.3744491 -0.131845,2.070601 0.04281,2.913949 0.749915,3.621053 0.603476,0.603476 0.913911,0.63135 2.521941,0.226443 z m 23.357127,1.342867 c -2.154344,-0.360945 -2.862742,-1.517773 -2.86557,-4.67954 -0.0026,-2.9192126 1.002861,-4.4297154 3.042523,-4.570709 2.206435,-0.1525222 2.821236,-0.00722 3.703799,0.8753412 0.701456,0.7014557 0.910701,1.1674098 1.05967,2.3596928 0.559469,4.47785 -1.215742,6.639258 -4.940422,6.015215 z m 2.914912,-1.688354 c 0.625044,-0.625044 0.632227,-5.22856 0.0091,-5.8516558 C 40.894514,9.1191634 39.0705,8.9578025 38.278832,9.4765237 36.872101,10.398248 36.721016,14.34353 38.041866,15.664379 c 0.562618,0.56262 0.831879,0.638513 1.855878,0.523093 0.658778,-0.07425 1.393867,-0.331095 1.633532,-0.570758 z m 16.575334,1.763956 c -1.857338,-0.320876 -2.547951,-1.563278 -2.541341,-4.571832 0.0081,-3.703163 0.94624,-4.7527268 4.247994,-4.7527268 h 1.865223 V 5.9394445 c 0,-2.081389 0.01103,-2.1166667 0.661458,-2.1166667 h 0.661458 v 6.7468752 6.746875 h -0.661458 c -0.363802,0 -0.661458,-0.131801 -0.661458,-0.292891 0,-0.170896 -0.192858,-0.218168 -0.463021,-0.113493 -0.771816,0.299039 -2.546626,0.567657 -3.108855,0.470526 z m 2.938664,-1.662382 c 0.616821,-0.234514 0.633212,-0.318878 0.633212,-3.259144 0,-3.3722312 0.02508,-3.3327678 -2.123941,-3.3410865 -1.92355,-0.00745 -2.815426,1.5022385 -2.55888,4.3314445 0.23577,2.60012 1.425294,3.266549 4.049609,2.268786 z m 49.954913,1.589568 c -1.11308,-0.233653 -1.36351,-0.419007 -1.88769,-1.397168 -0.63446,-1.183971 -0.62991,-5.008494 0.007,-6.198439 0.72076,-1.3457876 1.49401,-1.7067626 3.61354,-1.6869183 l 1.86174,0.01743 V 5.9327693 3.8227778 h 0.79375 0.79375 v 6.7468752 6.746875 h -0.79375 c -0.43656,0 -0.79375,-0.126089 -0.79375,-0.280198 0,-0.154109 -0.11111,-0.21153 -0.24691,-0.127603 -0.51652,0.319232 -2.56522,0.563461 -3.34806,0.399129 z m 2.41947,-1.345655 1.1755,-0.295993 v -3.112731 c 0,-3.0043588 -0.0207,-3.1182862 -0.59531,-3.2722692 -1.22078,-0.3271557 -2.28819,-0.1645381 -3.01315,0.4590481 -0.62715,0.5394491 -0.74291,0.8671251 -0.83889,2.3744491 -0.13185,2.070601 0.0428,2.913949 0.74991,3.621053 0.60348,0.603476 0.91391,0.63135 2.52194,0.226443 z m 64.49941,1.405376 c -1.84024,-0.178505 -2.90174,-2.257568 -2.66636,-5.22238 0.23248,-2.9282533 1.33075,-4.1268834 3.78136,-4.1268834 0.89205,0 1.72686,0.1759488 2.22169,0.4682538 0.92648,0.5472862 1.6019,2.0414156 1.6019,3.5436476 v 1.05298 h -3.04271 -3.04271 v 0.89673 c 0,0.493201 0.22771,1.177811 0.50602,1.521354 0.46044,0.568374 0.71654,0.626113 2.84383,0.64116 1.97673,0.01398 2.35112,0.08562 2.42396,0.463821 0.0474,0.246007 -0.0715,0.498296 -0.26415,0.560643 -0.50592,0.163725 -3.38061,0.29595 -4.36283,0.200674 z m 3.35109,-6.148492 c 0,-1.8791278 -2.48494,-2.8187479 -3.84848,-1.4552087 -0.35719,0.3571877 -0.64944,0.8236997 -0.64944,1.0366937 0,0.212994 -0.0723,0.575594 -0.16059,0.805777 -0.1392,0.36275 0.16045,0.418514 2.24895,0.418514 h 2.40956 z M 20.66807,12.68632 V 8.0561112 h 0.639409 c 0.351676,0 0.684789,0.1361358 0.740251,0.3025241 0.07566,0.2269768 0.242004,0.2269768 0.666113,0 0.78318,-0.4191447 3.303159,-0.3801639 3.905688,0.060416 0.421531,0.3082319 0.63283,0.3059152 1.401773,-0.01537 0.957551,-0.4000908 3.072477,-0.517233 4.003477,-0.2217457 1.088906,0.3456059 1.441069,1.5875643 1.558568,5.4965714 l 0.109354,3.638021 h -0.823774 -0.823775 v -3.456977 c 0,-1.901338 -0.118073,-3.677598 -0.262382,-3.9472449 C 31.427762,9.2489678 30.202233,9.020336 28.892294,9.3730663 L 27.81182,9.6640075 v 3.8262605 3.82626 h -0.630812 c -0.628649,0 -0.631173,-0.01235 -0.736073,-3.60211 C 26.34443,10.275072 26.310474,10.088665 25.693478,9.5890513 25.190818,9.1820218 24.818025,9.1024539 24.015164,9.2308367 21.958854,9.559654 21.990986,9.4899529 21.990986,13.621671 v 3.694857 H 21.329528 20.66807 Z m 25.135418,0 V 8.0561112 h 0.771702 c 0.424434,0 0.817078,0.1361358 0.872543,0.3025241 0.07566,0.2269768 0.242001,0.2269768 0.666112,0 0.310899,-0.1663883 1.221304,-0.3025241 2.023118,-0.3025241 1.159037,0 1.610011,0.1307531 2.200209,0.6379168 l 0.742358,0.6379165 0.08521,3.9922925 0.08521,3.992291 H 52.569431 51.88891 v -3.157776 c 0,-4.6783868 -0.453224,-5.3823536 -3.085918,-4.7931826 L 47.390988,9.681561 v 3.817484 3.817483 h -0.79375 -0.79375 z m 37.835418,0 V 8.0561112 h 0.79375 c 0.436563,0 0.79375,0.1161156 0.79375,0.2580347 0,0.1676574 0.23771,0.1676574 0.678683,0 0.988357,-0.3757721 3.344474,-0.300237 3.905811,0.1252175 0.41233,0.3125152 0.615434,0.3112772 1.380564,-0.00841 0.493414,-0.2061615 1.549141,-0.3748384 2.346066,-0.3748384 1.149893,0 1.602174,0.1317207 2.191311,0.6381893 l 0.742358,0.6381893 0.09041,3.9920194 0.09041,3.992019 H 95.9663 95.280574 v -2.877344 c 0,-3.588944 -0.169905,-4.4567554 -0.975979,-4.9849146 -0.542709,-0.3555996 -0.846069,-0.3715455 -2.029582,-0.106687 l -1.3915,0.3114041 0.115189,3.8287685 0.115187,3.828769 H 90.286814 89.45974 v -3.290067 c 0,-1.809538 -0.111921,-3.584447 -0.248716,-3.944243 -0.31786,-0.8360352 -1.476479,-1.1063026 -2.906253,-0.6779324 l -1.078365,0.3230862 v 3.7945782 3.794578 h -0.79375 -0.79375 z M 118.82849,10.569653 V 3.8227778 h 0.79375 0.79375 v 6.7468752 6.746875 h -0.79375 -0.79375 z m 4.23334,5.688542 c 0,-0.999537 0.0441,-1.058334 0.79375,-1.058334 0.74965,0 0.79375,0.0588 0.79375,1.058334 0,0.999537 -0.0441,1.058333 -0.79375,1.058333 -0.74966,0 -0.79375,-0.0588 -0.79375,-1.058333 z m 3.96875,-3.571875 V 8.0561112 h 0.63941 c 0.35167,0 0.68157,0.126491 0.7331,0.2810913 0.0661,0.1983994 0.3112,0.1983994 0.83303,0 1.04413,-0.3969796 3.1567,-0.3489974 3.75048,0.085183 0.42665,0.3119773 0.6548,0.3119773 1.53904,0 1.38753,-0.4895501 3.61642,-0.4698379 4.34203,0.038401 0.84652,0.5929243 1.12436,1.9783015 1.12601,5.6145955 0.002,3.232788 -1.3e-4,3.241145 -0.62486,3.241145 -0.61959,0 -0.62766,-0.03635 -0.74854,-3.373436 -0.0672,-1.855392 -0.25847,-3.627633 -0.42502,-3.938316 -0.40544,-0.7563366 -1.38141,-0.9629844 -2.82786,-0.5987638 l -1.19307,0.3004196 v 3.8050492 3.805047 h -0.64096 -0.64096 l -0.0867,-3.59586 c -0.0833,-3.457169 -0.11189,-3.616284 -0.74131,-4.125367 -0.51101,-0.4133168 -0.88114,-0.4932911 -1.68678,-0.3644638 -2.05631,0.3288173 -2.02418,0.2591162 -2.02418,4.3908338 v 3.694857 h -0.66146 -0.66145 z m 34.66041,3.571875 c 0,-0.999537 0.0441,-1.058334 0.79375,-1.058334 0.74966,0 0.79375,0.0588 0.79375,1.058334 0,0.999537 -0.0441,1.058333 -0.79375,1.058333 -0.74965,0 -0.79375,-0.0588 -0.79375,-1.058333 z m 4.76481,0.307598 c -0.86986,-0.869865 -1.20972,-2.490897 -0.98292,-4.688328 0.30374,-2.9429879 1.30427,-3.8787398 4.11905,-3.8523865 l 1.88865,0.017682 V 5.9327693 3.8227778 h 0.79375 0.79375 v 6.7468752 6.746875 h -0.7717 c -0.42444,0 -0.81708,-0.136136 -0.87255,-0.302524 -0.0756,-0.226977 -0.242,-0.226977 -0.66611,0 -0.3109,0.166388 -1.2371,0.302524 -2.05823,0.302524 -1.28705,0 -1.59649,-0.103539 -2.24369,-0.750735 z m 3.84928,-0.603592 1.1755,-0.295993 v -3.112731 c 0,-3.0043588 -0.0207,-3.1182862 -0.59531,-3.2722692 -1.61115,-0.4317707 -3.13112,0.016991 -3.60885,1.0654872 -0.16157,0.354603 -0.29376,1.53751 -0.29376,2.628684 0,1.753641 0.0754,2.059343 0.64943,2.633384 0.73326,0.733254 1.01609,0.770652 2.67299,0.353438 z"
         id="path1354" />
      <path
         style="fill:#31abc8;stroke-width:0.264583"
         d="m 153.53637,21.513593 c -0.6364,-0.183354 -0.98283,-0.502627 -1.25677,-1.158265 -0.5215,-1.248116 -0.47717,-1.760775 0.24418,-2.823729 0.43238,-0.637148 0.58581,-1.166111 0.50264,-1.732813 -0.0659,-0.44864 5.3e-4,-1.030478 0.14737,-1.292974 0.20684,-0.369596 0.12329,-0.648168 -0.37035,-1.234825 -0.50445,-0.599506 -0.63745,-1.061177 -0.63745,-2.21282 0,-1.2556684 0.10608,-1.5613341 0.7734,-2.2286583 0.76942,-0.7694221 0.78982,-0.7733975 3.96875,-0.7733975 3.01896,0 3.19535,0.029211 3.19535,0.5291667 0,0.4105958 -0.17639,0.5291667 -0.7872,0.5291667 -0.73568,0 -0.77031,0.044416 -0.52916,0.6786827 0.55979,1.4723547 0.0529,3.5038477 -0.98895,3.9638587 -0.26005,0.114813 -1.12766,0.278069 -1.92802,0.362792 -1.40628,0.148862 -1.45521,0.180731 -1.45521,0.947792 v 0.79375 l 2.16461,0.140958 c 2.45328,0.159755 3.14419,0.563608 3.41268,1.994787 0.27862,1.48517 -0.31677,2.738623 -1.57148,3.308361 -1.18859,0.539715 -3.40566,0.634204 -4.88439,0.208167 z m 4.48617,-1.310395 c 0.5697,-0.298793 0.82064,-1.364636 0.51226,-2.175758 -0.28066,-0.738171 -1.16465,-0.927593 -3.31768,-0.710912 -1.06168,0.106849 -1.3872,0.262419 -1.69253,0.808884 -0.53131,0.950917 0.0506,2.159735 1.15747,2.404395 0.88456,0.195522 2.67957,0.02002 3.34048,-0.326609 z m -0.82946,-7.64917 c 0.32758,-0.327579 0.52916,-0.881944 0.52916,-1.455208 0,-1.2474957 -0.76414,-1.9843754 -2.05779,-1.9843754 -1.47799,0 -2.17554,0.5986484 -2.17554,1.8670864 0,1.395175 0.71153,2.101664 2.11667,2.101664 0.70555,0 1.23472,-0.176389 1.5875,-0.529167 z M 99.249324,14.670695 V 8.0561112 h 0.639411 c 0.351675,0 0.688555,0.147428 0.748615,0.3276177 0.0868,0.2604344 0.25666,0.2604344 0.82825,0 1.02522,-0.4671224 3.10333,-0.410903 3.83822,0.1038365 0.91011,0.6374686 1.35384,1.9657246 1.35384,4.0526106 0,2.280738 -0.5771,3.85698 -1.60716,4.389642 -0.44851,0.231936 -1.49434,0.38671 -2.61304,0.38671 h -1.86522 v 1.984375 c 0,1.940278 -0.0147,1.984375 -0.661458,1.984375 h -0.661458 z m 5.210766,0.94895 c 0.70728,-0.608375 0.74236,-0.74699 0.74236,-2.933325 0,-2.208542 -0.0291,-2.31979 -0.77388,-2.9604355 -0.81035,-0.6970361 -1.54711,-0.7234208 -3.12873,-0.1120449 l -0.7276,0.2812576 v 3.0298568 c 0,3.380341 -0.0841,3.243919 2.03577,3.302549 0.82128,0.02271 1.30268,-0.135281 1.85208,-0.607858 z m 38.1809,-0.94895 V 8.0561112 h 0.63941 c 0.35168,0 0.68158,0.126491 0.73311,0.2810913 0.0661,0.1983994 0.31119,0.1983994 0.83302,0 0.40663,-0.1546003 1.31083,-0.2810913 2.00934,-0.2810913 2.24972,0 3.19051,1.3262976 3.19051,4.4979168 0,2.047572 -0.4123,3.296682 -1.34801,4.084035 -0.70698,0.594887 -1.04826,0.678465 -2.77039,0.678465 h -1.96407 v 1.984375 c 0,1.940278 -0.0147,1.984375 -0.66146,1.984375 h -0.66146 z m 4.62579,1.3246 c 2.00817,-0.763506 1.88716,-6.0092256 -0.15495,-6.7169127 -0.46488,-0.161104 -1.06648,-0.1190541 -1.85208,0.1294551 l -1.16355,0.3680655 -0.0752,3.0214781 c -0.0558,2.239278 0.0127,3.077297 0.26458,3.237095 0.47136,0.299081 2.14954,0.277025 2.98123,-0.03918 z m -76.909108,4.655144 c -3.232214,-0.870133 -4.697149,-2.992483 -4.912832,-7.117543 -0.244123,-4.6689838 0.888656,-7.316701 3.755565,-8.7781253 1.46743,-0.7480298 1.758056,-0.7995172 4.497917,-0.7968529 3.323855,0.00323 4.654431,0.4307311 6.158365,1.9786086 1.239928,1.276158 1.665553,2.8088768 1.665553,5.9978216 0,2.925673 -0.450043,4.650449 -1.33734,5.125316 -0.778475,0.416628 -2.928493,0.309468 -3.461065,-0.172503 -0.437687,-0.396102 -0.557588,-0.396102 -1.547542,0 -1.729042,0.691825 -3.278783,0.569205 -4.296286,-0.339935 -0.818394,-0.731232 -0.865902,-0.877243 -0.960057,-2.950602 -0.115281,-2.538548 0.209209,-3.8617116 1.167974,-4.7626076 0.625552,-0.587796 0.922134,-0.6491721 3.311742,-0.6853513 l 2.624657,-0.039738 v 3.3959519 c 0,4.188953 0.173603,4.753316 1.462161,4.753316 1.408438,0 1.798096,-1.110588 1.667712,-4.753247 C 80.026574,7.9394358 79.47301,6.7994221 77.369607,5.7703218 76.088169,5.1433727 75.743483,5.0930855 73.378663,5.1880693 c -2.220309,0.089179 -2.76058,0.2048854 -3.799446,0.8137002 -1.489318,0.872799 -1.969206,1.5801293 -2.514619,3.7064218 -0.509915,1.9879137 -0.370795,5.0723107 0.30443,6.7494267 0.893027,2.218093 3.077491,3.24016 6.925191,3.24016 1.983084,0 2.200937,0.04958 2.200937,0.500859 0,0.275473 -0.18833,0.573129 -0.418515,0.661459 -0.719683,0.276168 -4.417934,0.14059 -5.718969,-0.209657 z m 4.705842,-4.980291 c 0.616455,-0.280876 0.637892,-0.386067 0.637892,-3.130282 0,-3.1805715 0.01234,-3.1608381 -1.976702,-3.1608381 -1.781011,0 -2.335557,0.6140956 -2.470669,2.7359711 -0.132927,2.087574 0.04257,2.913397 0.774729,3.645553 0.57817,0.578171 1.636588,0.546642 3.03475,-0.0904 z M 2.4598701,16.654901 C 0.50652701,15.011271 0.80317425,9.75791 2.9199378,8.5075071 3.9220815,7.9155262 6.1913875,7.9144419 7.1919116,8.5054661 8.0866216,9.0339843 8.761819,10.549934 8.761819,12.030215 v 1.05298 H 5.7191105 2.676402 v 0.89673 c 0,0.493201 0.2275376,1.177811 0.5056392,1.521354 0.4579421,0.565703 0.7262431,0.627709 2.8442709,0.657331 2.0992654,0.02936 2.3386318,0.08352 2.3386318,0.529167 0,0.44598 -0.2591247,0.504121 -2.5484488,0.57181 -2.4053182,0.07112 -2.5938389,0.03716 -3.356625,-0.604686 z m 4.9790321,-4.987433 c 0,-0.747977 -0.604543,-2.0455787 -1.0687691,-2.2940252 C 5.458762,8.8856919 4.0194217,9.0702883 3.3258337,9.7638763 2.9686463,10.121064 2.676402,10.587576 2.676402,10.80057 c 0,0.212994 -0.07227,0.575594 -0.1605992,0.805777 -0.1395773,0.363733 0.1721182,0.418514 2.3812501,0.418514 1.9582311,0 2.5418493,-0.08206 2.5418493,-0.357393 z m 4.1713618,4.877017 c -0.830716,-0.742242 -0.867704,-0.860495 -0.95822,-3.063502 -0.06983,-1.699511 0.02182,-2.595115 0.354764,-3.466925 0.58454,-1.530596 1.419902,-1.9579468 3.827289,-1.9579468 h 1.865222 V 5.9394445 c 0,-2.081389 0.01103,-2.1166667 0.661459,-2.1166667 h 0.661458 v 6.7468752 6.746875 h -0.63941 c -0.351675,0 -0.681573,-0.126491 -0.733106,-0.281091 -0.06613,-0.198399 -0.311194,-0.198399 -0.833023,0 -0.40663,0.1546 -1.325009,0.281091 -2.040844,0.281091 -1.064197,0 -1.459075,-0.140776 -2.165589,-0.772043 z m 4.570557,-0.821167 c 0.46818,-0.250562 0.518498,-0.568874 0.518498,-3.280032 0,-2.8900866 -0.0223,-3.0085159 -0.595312,-3.1620782 -1.291648,-0.3461481 -2.545838,-0.1704978 -3.277729,0.4590481 -0.627146,0.5394491 -0.742914,0.8671251 -0.838894,2.3744491 -0.133239,2.092481 0.04245,2.913586 0.781543,3.652681 0.457924,0.457924 0.757025,0.526246 1.723731,0.393745 0.643316,-0.08818 1.40299,-0.285192 1.688163,-0.437813 z M 20.66807,12.68632 V 8.0561112 h 0.639409 c 0.351676,0 0.681574,0.126491 0.733107,0.2810913 0.06613,0.1983994 0.311193,0.1983994 0.833023,0 1.069545,-0.4066403 3.14175,-0.3449831 3.795517,0.1129331 0.498235,0.348977 0.670362,0.348977 1.505581,0 0.957021,-0.3998688 3.209544,-0.5294985 3.990885,-0.2296702 0.961512,0.3689667 1.304473,1.6892911 1.417757,5.4580416 l 0.109354,3.638021 H 33.035735 32.378767 L 32.256233,13.703564 C 32.142107,10.338538 32.092334,10.057106 31.530946,9.6025223 30.84507,9.0471325 30.221711,8.9992236 28.804008,9.39294 L 27.81182,9.6684842 v 3.8240218 3.824022 h -0.661458 -0.661459 v -3.294842 c 0,-1.924423 -0.126879,-3.573311 -0.305049,-3.964353 C 25.797849,9.2101454 24.608209,8.9615689 23.181611,9.4300113 l -1.058333,0.347518 -0.07341,3.7694997 -0.07341,3.769499 H 21.322263 20.66807 Z m 16.432208,3.951743 c -0.917631,-0.772135 -1.348007,-2.033802 -1.348007,-3.951743 0,-1.917942 0.430376,-3.1796086 1.348007,-3.9517441 0.697957,-0.5872922 1.056021,-0.6784647 2.664552,-0.6784647 1.746637,0 1.910287,0.052045 2.724817,0.8665769 1.011452,1.0114526 1.369291,2.7417619 1.067142,5.1600979 -0.148969,1.192283 -0.358214,1.658238 -1.05967,2.359693 -0.823076,0.823076 -0.982419,0.874049 -2.732289,0.874049 -1.608531,0 -1.966595,-0.09117 -2.664552,-0.678465 z m 4.318905,-0.998595 c 1.201494,-1.201492 1.119174,-5.050691 -0.129641,-6.0620026 -0.705972,-0.5717077 -2.314951,-0.6010822 -3.092511,-0.056459 -1.310185,0.9176906 -1.43124,4.8672966 -0.187304,6.1112306 0.863669,0.86367 2.549444,0.867245 3.409456,0.0072 z M 46.068071,12.68632 V 8.0561112 h 0.639411 c 0.351673,0 0.681572,0.126491 0.733105,0.2810913 0.06614,0.1983994 0.311195,0.1983994 0.833024,0 1.357495,-0.5161188 3.240072,-0.3508077 4.063561,0.3568255 l 0.742358,0.6379165 0.08521,3.9922925 0.08521,3.992291 H 52.569431 51.88891 v -3.290067 c 0,-1.809538 -0.111922,-3.584447 -0.248717,-3.944243 C 51.320849,9.2422939 50.222572,8.9934303 48.618125,9.3974347 l -1.227137,0.3089966 v 3.8050487 3.805048 h -0.661459 -0.661458 z m 10.878839,4.198754 c -0.887005,-0.621282 -1.354055,-1.954202 -1.352362,-3.859527 0.0021,-2.252711 0.388792,-3.4826047 1.349481,-4.2909711 0.706982,-0.5948868 1.048258,-0.6784647 2.770386,-0.6784647 h 1.964074 V 5.9394445 c 0,-2.081389 0.01103,-2.1166667 0.661458,-2.1166667 h 0.661458 v 6.7468752 6.746875 h -0.63941 c -0.351674,0 -0.681572,-0.126491 -0.733105,-0.281091 -0.06614,-0.198399 -0.311195,-0.198399 -0.833025,0 -1.112965,0.423148 -3.143398,0.343828 -3.848955,-0.150363 z m 4.235548,-1.173781 c 0.440288,-0.235634 0.496031,-0.603175 0.496031,-3.270558 0,-3.3586717 0.01895,-3.3262904 -1.947143,-3.3262904 -2.108338,0 -3.000566,1.4138544 -2.735678,4.3350574 0.120644,1.330505 0.273055,1.721209 0.87259,2.236909 0.599879,0.515993 0.908598,0.595702 1.772293,0.457592 0.575233,-0.09198 1.269093,-0.286703 1.541907,-0.43271 z M 83.90349,12.68632 V 8.0561112 h 0.63941 c 0.351674,0 0.684787,0.1361358 0.740252,0.3025241 0.07566,0.2269768 0.242001,0.2269768 0.666112,0 0.770655,-0.4124418 3.27088,-0.3671165 3.8466,0.069733 0.390906,0.2966133 0.631706,0.2971428 1.455208,0.0032 1.66319,-0.5936647 3.614786,-0.4791547 4.477769,0.2627336 l 0.742358,0.638189 0.09041,3.9920191 0.09041,3.992019 H 95.9663 95.280574 v -3.294842 c 0,-1.89964 -0.127514,-3.574706 -0.301133,-3.955755 C 94.600764,9.2348215 93.591294,8.9992085 92.060552,9.3846538 l -1.17638,0.2962158 0.114858,3.8178294 0.114859,3.817829 H 90.454224 89.79456 L 89.672357,13.943091 C 89.604523,12.070513 89.408929,10.306185 89.232728,9.9774644 88.808256,9.1855786 87.838003,8.9811808 86.406292,9.3820349 l -1.179886,0.3303474 v 3.8020727 3.802073 H 84.564948 83.90349 Z m 25.8672,3.858165 c -0.83072,-0.742242 -0.86771,-0.860495 -0.95822,-3.063502 -0.0698,-1.699511 0.0218,-2.595115 0.35476,-3.466925 0.58454,-1.530596 1.4199,-1.9579468 3.82729,-1.9579468 h 1.86522 V 5.9394445 c 0,-2.081389 0.011,-2.1166667 0.66146,-2.1166667 h 0.66146 v 6.7468752 6.746875 h -0.63941 c -0.35168,0 -0.68157,-0.126491 -0.73311,-0.281091 -0.0661,-0.198399 -0.31119,-0.198399 -0.83302,0 -0.40663,0.1546 -1.32501,0.281091 -2.04084,0.281091 -1.0642,0 -1.45908,-0.140776 -2.16559,-0.772043 z m 4.57055,-0.821167 c 0.46818,-0.250562 0.5185,-0.568874 0.5185,-3.280032 0,-2.8900866 -0.0223,-3.0085159 -0.59531,-3.1620782 -1.29165,-0.3461481 -2.54584,-0.1704978 -3.27773,0.4590481 -0.62715,0.5394491 -0.74291,0.8671251 -0.83889,2.3744491 -0.13324,2.092481 0.0424,2.913586 0.78154,3.652681 0.45792,0.457924 0.75702,0.526246 1.72373,0.393745 0.64332,-0.08818 1.40299,-0.285192 1.68816,-0.437813 z m 4.75183,-5.153665 V 3.8227778 h 0.66146 0.66146 v 6.7468752 6.746875 h -0.66146 -0.66146 z m 3.96876,5.688542 c 0,-0.999537 0.0441,-1.058334 0.79375,-1.058334 0.74965,0 0.79375,0.0588 0.79375,1.058334 0,0.999537 -0.0441,1.058333 -0.79375,1.058333 -0.74966,0 -0.79375,-0.0588 -0.79375,-1.058333 z m 3.96875,-3.571875 V 8.0561112 h 0.63941 c 0.35167,0 0.68855,0.147428 0.74861,0.3276177 0.0868,0.2604344 0.25666,0.2604344 0.82825,0 0.98579,-0.4491564 3.10172,-0.4120309 3.78478,0.066407 0.49824,0.348977 0.67036,0.348977 1.50558,0 1.23597,-0.516422 3.58621,-0.5106411 4.33046,0.010652 0.84652,0.5929244 1.12436,1.9783011 1.12601,5.6145951 l 10e-4,3.241145 h -0.66146 -0.66146 v -3.157776 c 0,-4.6783866 -0.45322,-5.3823534 -3.08591,-4.7931824 l -1.412,0.3159916 v 3.8174838 3.817483 h -0.66146 -0.66146 v -3.571875 c 0,-3.286247 -0.0448,-3.61672 -0.5608,-4.1326695 -0.46511,-0.4651122 -0.76036,-0.5334411 -1.73046,-0.4004745 -2.24221,0.3073295 -2.20666,0.2362801 -2.20666,4.410162 v 3.694857 h -0.66146 -0.66145 z m 34.925,3.571875 c 0,-0.9525 0.0661,-1.058334 0.66146,-1.058334 0.59531,0 0.66145,0.105834 0.66145,1.058334 0,0.9525 -0.0661,1.058333 -0.66145,1.058333 -0.59532,0 -0.66146,-0.105833 -0.66146,-1.058333 z m 4.85961,0.589429 c -0.93425,-0.756768 -1.24273,-1.676645 -1.26206,-3.763315 -0.0359,-3.8802725 0.93765,-5.0254887 4.2738,-5.0272088 l 1.91823,-9.89e-4 V 5.9394445 c 0,-2.081389 0.011,-2.1166667 0.66146,-2.1166667 h 0.66146 v 6.7468752 6.746875 h -0.63941 c -0.35168,0 -0.68855,-0.147428 -0.74862,-0.327617 -0.0868,-0.260435 -0.25665,-0.260435 -0.82825,0 -1.06899,0.487065 -3.35989,0.40688 -4.03661,-0.141287 z m 4.41147,-1.124306 c 0.46818,-0.250562 0.5185,-0.568874 0.5185,-3.280032 0,-2.8900866 -0.0223,-3.0085159 -0.59531,-3.1620782 -0.93387,-0.2502684 -2.23003,-0.1941833 -2.93494,0.1269963 -0.92514,0.4215252 -1.23225,1.3105419 -1.23225,3.5671749 0,1.779756 0.0702,2.054199 0.68251,2.666462 0.59674,0.596736 0.83084,0.662179 1.86275,0.520739 0.64914,-0.08897 1.41357,-0.286641 1.69874,-0.439262 z m 5.32905,0.931583 c -1.95334,-1.64363 -1.65669,-6.896991 0.46007,-8.1473939 1.00214,-0.5919809 3.27145,-0.5930652 4.27197,-0.00204 0.89471,0.5285145 1.56991,2.0444639 1.56991,3.5247449 v 1.05298 h -3.04271 -3.04271 v 0.89673 c 0,0.493201 0.22754,1.177811 0.50564,1.521354 0.45795,0.565703 0.72625,0.627709 2.84428,0.657331 2.09926,0.02936 2.33863,0.08352 2.33863,0.529167 0,0.44598 -0.25913,0.504121 -2.54845,0.57181 -2.40532,0.07112 -2.59384,0.03716 -3.35663,-0.604686 z m 4.97904,-4.987433 c 0,-0.747977 -0.60455,-2.0455787 -1.06877,-2.2940252 -0.91137,-0.4877509 -2.35072,-0.3031545 -3.0443,0.3904335 -0.35719,0.3571877 -0.64944,0.8236997 -0.64944,1.0366937 0,0.212994 -0.0723,0.575594 -0.16059,0.805777 -0.13958,0.363733 0.17211,0.418514 2.38125,0.418514 1.95823,0 2.54185,-0.08206 2.54185,-0.357393 z"
         id="path1352" />
      <path
         style="fill:#578968;stroke-width:0.264583"
         d="m 153.53637,21.513593 c -0.6364,-0.183354 -0.98283,-0.502627 -1.25677,-1.158265 -0.5215,-1.248116 -0.47717,-1.760775 0.24418,-2.823729 0.43238,-0.637148 0.58581,-1.166111 0.50264,-1.732813 -0.0659,-0.44864 5.3e-4,-1.030478 0.14737,-1.292974 0.20684,-0.369596 0.12329,-0.648168 -0.37035,-1.234825 -0.50445,-0.599506 -0.63745,-1.061177 -0.63745,-2.21282 0,-1.2556684 0.10608,-1.5613341 0.7734,-2.2286583 0.76942,-0.7694221 0.78982,-0.7733975 3.96875,-0.7733975 3.01896,0 3.19535,0.029211 3.19535,0.5291667 0,0.4123161 -0.17639,0.5291667 -0.79879,0.5291667 -0.74345,0 -0.78495,0.050402 -0.59898,0.7276042 0.49005,1.7845342 -0.12887,3.5590852 -1.41141,4.0467052 -0.36567,0.139026 -1.17899,0.252774 -1.80739,0.252774 -0.95433,0 -1.16759,0.0958 -1.29462,0.581545 -0.23597,0.90236 0.27798,1.270384 1.7764,1.272014 1.79378,0.002 3.27184,0.433179 3.60251,1.051041 0.46671,0.872048 0.31903,2.779613 -0.2735,3.532897 -0.88489,1.124955 -3.58199,1.56246 -5.76134,0.934568 z m 4.46579,-1.294853 c 0.58625,-0.313751 0.84516,-1.369287 0.5356,-2.183504 -0.19435,-0.511176 -0.49652,-0.675588 -1.49257,-0.812112 -2.00793,-0.275218 -2.55931,-0.205772 -3.2085,0.404108 -0.60442,0.567827 -0.79528,1.637747 -0.40241,2.255804 0.52506,0.825991 3.27424,1.028036 4.56788,0.335704 z m -0.80908,-7.664712 c 0.32758,-0.327579 0.52916,-0.881944 0.52916,-1.455208 0,-1.262414 -0.76222,-1.9843754 -2.09502,-1.9843754 -1.4611,0 -1.80858,0.1915245 -2.13345,1.1759104 -0.30407,0.921341 -0.005,2.195971 0.60701,2.584966 0.65704,0.417787 2.54989,0.22112 3.0923,-0.321293 z M 99.249324,14.670695 V 8.0561112 h 0.639411 c 0.351675,0 0.688555,0.147428 0.748615,0.3276177 0.0868,0.2604344 0.25666,0.2604344 0.82825,0 0.91206,-0.4155654 2.58075,-0.4210915 3.47966,-0.011525 0.972,0.4428754 1.50934,1.6410501 1.63714,3.6505461 0.23924,3.761906 -0.97532,5.293778 -4.1972,5.293778 h -1.81296 v 1.984375 c 0,1.940278 -0.0147,1.984375 -0.661458,1.984375 h -0.661458 z m 5.210766,0.94895 c 0.70728,-0.608375 0.74236,-0.74699 0.74236,-2.933325 0,-2.186336 -0.0351,-2.324951 -0.74236,-2.9333257 -0.85069,-0.7317309 -1.66277,-0.8014965 -2.97031,-0.2551756 l -0.91754,0.3833744 v 3.0121119 c 0,1.656662 0.0794,3.091487 0.17639,3.188501 0.097,0.09701 0.80475,0.176389 1.57274,0.176389 1.09464,0 1.55677,-0.137976 2.13872,-0.63855 z m 38.1809,-0.94895 c 0,-6.3423312 0.0209,-6.6145838 0.50712,-6.6145838 0.27892,0 0.55338,0.1387936 0.60993,0.3084299 0.0783,0.2348507 0.31388,0.2348507 0.98757,0 2.67875,-0.9338168 4.56858,0.039684 5.05116,2.6019869 0.30719,1.631067 0.11337,3.735033 -0.4444,4.824167 -0.54242,1.05914 -1.6605,1.525833 -3.65553,1.525833 h -1.73293 v 1.984375 c 0,1.940278 -0.0147,1.984375 -0.66146,1.984375 h -0.66146 z m 4.62579,1.3246 c 1.82445,-0.693659 1.9569,-5.642134 0.17651,-6.5949705 -0.66623,-0.3565512 -1.22394,-0.3582069 -2.48719,-0.00738 l -0.99219,0.2755442 v 3.1184673 c 0,1.715156 0.0794,3.197841 0.17639,3.294855 0.26807,0.268072 2.34501,0.210602 3.12648,-0.08651 z M 70.357672,20.650439 C 67.125458,19.780306 65.660523,17.657956 65.44484,13.532896 65.200717,8.8639122 66.333496,6.216195 69.200405,4.7547707 70.653193,4.0142045 70.976016,3.955085 73.56603,3.9552801 c 2.475678,1.865e-4 2.969422,0.081091 4.29984,0.7045665 2.763612,1.2951149 3.844613,3.7522112 3.593285,8.1674814 -0.135356,2.377866 -0.624033,3.742746 -1.50976,4.216774 -0.875774,0.468699 -2.788346,0.332883 -3.301791,-0.234469 -0.450882,-0.498217 -0.477629,-0.498317 -1.562362,-0.0058 -1.684251,0.764707 -3.163198,0.674464 -4.205235,-0.256596 -0.818394,-0.731233 -0.865902,-0.877244 -0.960057,-2.950602 -0.115287,-2.538679 0.209225,-3.8617769 1.168109,-4.7626081 0.626838,-0.5888863 0.917827,-0.6485668 3.311742,-0.679224 l 2.624522,-0.033611 v 3.7510061 c 0,4.132716 0.08787,4.386007 1.521626,4.386007 1.342226,0 1.736657,-1.165758 1.608247,-4.753247 C 80.028336,7.9887076 79.470409,6.8119475 77.452342,5.8063024 76.348312,5.2561421 75.748295,5.1459411 73.86352,5.14717 c -2.691276,0.00175 -3.946332,0.3084116 -5.044668,1.2325994 -1.44445,1.2154255 -1.939367,2.5488263 -2.06194,5.5552566 -0.231844,5.686549 1.711701,7.762752 7.266752,7.762752 1.988942,0 2.206909,0.04947 2.206909,0.500859 0,0.275473 -0.188331,0.573129 -0.418516,0.661459 -0.713941,0.273965 -4.14828,0.141955 -5.454385,-0.209657 z m 4.673669,-4.965631 c 0.656444,-0.299097 0.670065,-0.363022 0.670065,-3.144942 0,-3.2071804 0.03107,-3.1608381 -2.119104,-3.1608381 -1.050798,0 -1.375492,0.1187622 -1.799936,0.6583561 -1.033418,1.31378 -0.965325,4.533721 0.121269,5.734393 0.38354,0.423807 0.687072,0.501459 1.470469,0.376188 0.542944,-0.08682 1.288699,-0.29524 1.657237,-0.463157 z M 2.4489314,16.645697 C 0.50620266,15.010998 0.81048054,9.7535941 2.9199378,8.5075071 3.7621557,8.0099965 5.7031286,7.9122406 6.760098,8.3140996 7.7935881,8.7070318 8.4950922,10.07276 8.4962466,11.694132 l 9.89e-4,1.389063 H 5.4199085 2.3425812 l 0.1579778,0.992187 c 0.097335,0.611319 0.4325746,1.23068 0.8733196,1.613474 0.645033,0.560223 0.9189641,0.61204 2.7870577,0.527206 1.7870608,-0.08116 2.071716,-0.03408 2.071716,0.342593 0,0.616306 -0.543903,0.757873 -2.9117562,0.757873 -1.8347572,0 -2.1669382,-0.07759 -2.8719647,-0.670831 z m 4.9899708,-4.978229 c 0,-0.747977 -0.604543,-2.0455787 -1.0687691,-2.2940252 C 5.7015707,9.0156391 3.9552711,9.0635224 3.447224,9.4535883 2.8836659,9.8862744 2.4118186,10.808961 2.4118186,11.478301 c 0,0.514003 0.1497247,0.54656 2.5135418,0.54656 1.9344588,0 2.5135418,-0.08234 2.5135418,-0.357393 z m 4.1713618,4.877017 c -0.830716,-0.742242 -0.867704,-0.860495 -0.95822,-3.063502 -0.06983,-1.699511 0.02182,-2.595115 0.354764,-3.466925 0.58454,-1.530596 1.419902,-1.9579468 3.827289,-1.9579468 h 1.865222 V 5.9394445 c 0,-1.9402778 0.0441,-2.1166667 0.529167,-2.1166667 0.515332,0 0.529167,0.1763889 0.529167,6.7468752 0,6.472705 -0.02061,6.746875 -0.507118,6.746875 -0.278915,0 -0.553383,-0.138793 -0.609928,-0.30843 -0.07828,-0.23485 -0.313879,-0.23485 -0.987573,0 -1.618369,0.564167 -3.080086,0.396541 -4.04277,-0.463613 z m 4.552314,-0.811403 c 0.490859,-0.2627 0.536741,-0.54392 0.536741,-3.289796 0,-2.8900866 -0.0223,-3.0085159 -0.595312,-3.1620782 -1.076133,-0.2883924 -2.716231,-0.1739755 -3.292553,0.2296956 -1.215158,0.8511306 -1.385646,4.7033676 -0.270876,6.1205676 0.488693,0.621272 0.669353,0.674995 1.814002,0.539428 0.699191,-0.08281 1.51279,-0.279827 1.807998,-0.437817 z M 20.66807,12.68632 V 8.0561112 h 0.639409 c 0.351676,0 0.681574,0.126491 0.733107,0.2810913 0.06613,0.1983994 0.311193,0.1983994 0.833023,0 1.050417,-0.3993677 2.718703,-0.3478615 3.606726,0.111353 0.670773,0.3468698 0.867977,0.3468698 1.698155,0 1.49383,-0.6241619 3.431175,-0.5139481 4.314931,0.2454725 l 0.742358,0.6379165 0.08521,3.9922925 c 0.08121,3.805129 0.06112,3.992291 -0.428509,3.992291 -0.477499,0 -0.522351,-0.254689 -0.636246,-3.612964 -0.114127,-3.365026 -0.1639,-3.646458 -0.725288,-4.1010417 C 30.843551,9.0459024 30.013495,8.9884627 28.633227,9.4020012 l -0.959779,0.2875566 0.09861,3.8134852 0.09861,3.813485 h -0.690883 -0.69088 v -3.294842 c 0,-1.924423 -0.126879,-3.573311 -0.305049,-3.964353 C 25.804449,9.2246309 24.611073,8.9584912 23.091449,9.3676837 l -1.100463,0.2963238 v 3.8262605 3.82626 H 21.329528 20.66807 Z m 16.432208,3.951743 c -0.917631,-0.772135 -1.348007,-2.033802 -1.348007,-3.951743 0,-1.917942 0.430376,-3.1796086 1.348007,-3.9517441 0.668504,-0.5625081 1.076407,-0.6784647 2.38665,-0.6784647 2.994269,0 3.93531,1.1072109 3.93531,4.6302088 0,3.522997 -0.941041,4.630208 -3.93531,4.630208 -1.310243,0 -1.718146,-0.115956 -2.38665,-0.678465 z m 4.189264,-0.842889 c 1.248815,-1.011312 1.331135,-4.86051 0.129641,-6.0620026 -0.667213,-0.6672149 -2.357131,-0.8526568 -3.278177,-0.3597286 -1.4517,0.7769262 -1.411761,6.1194742 0.05014,6.7076682 0.791408,0.31842 2.552832,0.155866 3.098392,-0.285937 z m 4.778529,-3.108854 c 0,-4.3867154 0.02667,-4.6302088 0.507119,-4.6302088 0.278913,0 0.553381,0.1387936 0.609928,0.3084299 0.07828,0.2348507 0.313878,0.2348507 0.987571,0 0.486619,-0.1696363 1.449117,-0.3084299 2.138886,-0.3084299 2.392522,0 2.883564,1.0437948 2.893933,6.1515628 l 0.0063,3.108854 H 52.57036 51.928902 l -0.08615,-3.691696 C 51.782522,11.043624 51.65299,9.8298989 51.412143,9.5899361 50.978464,9.1578521 48.525115,9.1667488 47.721713,9.6033191 47.148215,9.9149591 47.1264,10.062205 47.1264,13.621671 c 0,3.518468 -0.02526,3.694857 -0.529166,3.694857 -0.509008,0 -0.529167,-0.176389 -0.529167,-4.630208 z m 10.878839,4.198754 c -0.887005,-0.621282 -1.354055,-1.954202 -1.352362,-3.859527 0.0021,-2.252711 0.388792,-3.4826047 1.349481,-4.2909711 0.706982,-0.5948868 1.048258,-0.6784647 2.770386,-0.6784647 h 1.964074 V 5.9394445 c 0,-2.081389 0.01103,-2.1166667 0.661458,-2.1166667 h 0.661458 v 6.7468752 6.746875 h -0.63941 c -0.351674,0 -0.685673,-0.138793 -0.74222,-0.30843 -0.07828,-0.23485 -0.313878,-0.23485 -0.987571,0 -1.258022,0.438549 -2.964886,0.38157 -3.685294,-0.123024 z m 4.21308,-1.161756 c 0.46822,-0.250583 0.518499,-0.568892 0.518499,-3.282583 0,-3.3865831 0.03785,-3.3262904 -2.088418,-3.3262904 -2.182844,0 -2.8107,1.0202454 -2.62713,4.2689894 0.09072,1.605586 0.200837,1.956706 0.75415,2.404752 0.511212,0.413954 0.888077,0.491734 1.78616,0.368637 0.626033,-0.08581 1.371566,-0.280884 1.656739,-0.433505 z m 22.7435,-3.036998 c 0,-4.3867154 0.02667,-4.6302088 0.507119,-4.6302088 0.278913,0 0.55626,0.147428 0.616323,0.3276177 0.08681,0.2604344 0.256656,0.2604344 0.828249,0 0.974598,-0.4440574 3.098903,-0.4140018 3.766045,0.053283 0.468712,0.3282987 0.68694,0.3299026 1.580227,0.011613 1.387221,-0.4942856 3.554359,-0.4922803 4.262818,0.00394 0.775663,0.5432949 1.139219,2.4473951 1.139219,5.9665641 v 2.897394 h -0.661458 -0.661458 v -3.294842 c 0,-1.924423 -0.126879,-3.573311 -0.305049,-3.964353 C 94.59612,9.2246309 93.402744,8.9584912 91.88312,9.3676837 l -1.100463,0.2963238 v 3.8262605 c 0,3.649871 -0.02439,3.82626 -0.529167,3.82626 -0.492196,0 -0.529971,-0.18023 -0.540689,-2.579687 -0.01405,-3.146102 -0.31141,-4.8172341 -0.93879,-5.275987 -0.620789,-0.4539318 -1.754409,-0.4394554 -2.894645,0.036965 l -0.917543,0.3833744 v 3.7176676 c 0,3.541278 -0.02511,3.717667 -0.529167,3.717667 -0.509008,0 -0.529166,-0.176389 -0.529166,-4.630208 z m 25.8672,3.858165 c -0.83072,-0.742242 -0.86771,-0.860495 -0.95822,-3.063502 -0.0698,-1.699511 0.0218,-2.595115 0.35476,-3.466925 0.58454,-1.530596 1.4199,-1.9579468 3.82729,-1.9579468 h 1.86522 V 5.9394445 c 0,-1.9402778 0.0441,-2.1166667 0.52917,-2.1166667 0.51533,0 0.52916,0.1763889 0.52916,6.7468752 0,6.472705 -0.0206,6.746875 -0.50711,6.746875 -0.27892,0 -0.55339,-0.138793 -0.60993,-0.30843 -0.0783,-0.23485 -0.31388,-0.23485 -0.98757,0 -1.61837,0.564167 -3.08009,0.396541 -4.04277,-0.463613 z m 4.55231,-0.811403 c 0.49086,-0.2627 0.53674,-0.54392 0.53674,-3.289796 0,-2.8900866 -0.0223,-3.0085159 -0.59531,-3.1620782 -1.07613,-0.2883924 -2.71623,-0.1739755 -3.29255,0.2296956 -1.21516,0.8511306 -1.38565,4.7033676 -0.27088,6.1205676 0.48869,0.621272 0.66935,0.674995 1.814,0.539428 0.69919,-0.08281 1.51279,-0.279827 1.808,-0.437817 z m 4.77007,-5.163429 c 0,-6.5704863 0.0138,-6.7468752 0.52917,-6.7468752 0.51533,0 0.52917,0.1763889 0.52917,6.7468752 0,6.570486 -0.0138,6.746875 -0.52917,6.746875 -0.51533,0 -0.52917,-0.176389 -0.52917,-6.746875 z m 3.96876,5.688542 c 0,-0.9525 0.0661,-1.058334 0.66145,-1.058334 0.59532,0 0.66146,0.105834 0.66146,1.058334 0,0.9525 -0.0661,1.058333 -0.66146,1.058333 -0.59531,0 -0.66145,-0.105833 -0.66145,-1.058333 z m 3.96875,-3.571875 V 8.0561112 h 0.63941 c 0.35167,0 0.68855,0.147428 0.74861,0.3276177 0.0868,0.2604344 0.25666,0.2604344 0.82825,0 0.98579,-0.4491564 3.10172,-0.4120309 3.78478,0.066407 0.49824,0.348977 0.67036,0.348977 1.50558,0 1.11314,-0.465097 3.05265,-0.5141905 3.96112,-0.1002649 1.01452,0.4622469 1.2741,1.4295695 1.42995,5.328636 l 0.14541,3.638021 h -0.68023 -0.68022 l -0.0866,-3.59586 c -0.0821,-3.408513 -0.11919,-3.622182 -0.71127,-4.101042 -0.70706,-0.5718476 -1.92512,-0.6353926 -3.04111,-0.1586515 l -0.75531,0.322662 0.0401,3.7664455 0.0401,3.766446 h -0.67389 -0.67389 v -3.571875 c 0,-3.219097 -0.0523,-3.624138 -0.52917,-4.1010414 -0.60115,-0.6011516 -1.46479,-0.6664421 -2.94586,-0.222703 l -1.02289,0.3064635 v 3.7945779 3.794578 h -0.66146 -0.66145 z m 34.925,3.571875 c 0,-0.9525 0.0661,-1.058334 0.66146,-1.058334 0.59531,0 0.66145,0.105834 0.66145,1.058334 0,0.9525 -0.0661,1.058333 -0.66145,1.058333 -0.59532,0 -0.66146,-0.105833 -0.66146,-1.058333 z m 4.85961,0.589429 c -0.93425,-0.756768 -1.24273,-1.676645 -1.26206,-3.763315 -0.0359,-3.8802725 0.93765,-5.0254887 4.2738,-5.0272088 l 1.91823,-9.89e-4 V 5.9394445 c 0,-1.9402778 0.0441,-2.1166667 0.52917,-2.1166667 0.51533,0 0.52916,0.1763889 0.52916,6.7468752 0,6.472705 -0.0206,6.746875 -0.50711,6.746875 -0.27892,0 -0.55339,-0.138793 -0.60993,-0.30843 -0.0783,-0.23485 -0.31388,-0.23485 -0.98757,0 -1.30829,0.456071 -3.22007,0.377076 -3.88369,-0.160474 z m 4.39323,-1.114542 c 0.49086,-0.2627 0.53674,-0.54392 0.53674,-3.289796 0,-3.3901454 0.0507,-3.3176696 -2.32713,-3.3252285 -0.84661,-0.00269 -1.29675,0.1566362 -1.76474,0.6246254 -1.17899,1.1789831 -1.21582,4.7053241 -0.0621,5.9437661 0.50191,0.538759 0.75415,0.604785 1.83128,0.479355 0.68706,-0.08001 1.49073,-0.274732 1.78594,-0.432722 z m 5.33635,0.912615 c -1.94273,-1.634699 -1.63845,-6.8921029 0.47101,-8.1381899 0.84222,-0.4975106 2.78319,-0.5952665 3.84016,-0.1934075 1.03349,0.3929322 1.735,1.7586604 1.73615,3.3800324 l 9.9e-4,1.389063 h -3.07733 -3.07732 l 0.15797,0.992187 c 0.0973,0.611319 0.43258,1.23068 0.87332,1.613474 0.64503,0.560223 0.91897,0.61204 2.78706,0.527206 1.78706,-0.08116 2.07172,-0.03408 2.07172,0.342593 0,0.616306 -0.54391,0.757873 -2.91176,0.757873 -1.83476,0 -2.16694,-0.07759 -2.87197,-0.670831 z m 4.98998,-4.978229 c 0,-0.747977 -0.60455,-2.0455787 -1.06877,-2.2940252 -0.66857,-0.3578037 -2.41487,-0.3099204 -2.92291,0.080146 -0.56356,0.4326861 -1.03541,1.3553722 -1.03541,2.0247122 0,0.514003 0.14973,0.54656 2.51354,0.54656 1.93446,0 2.51355,-0.08234 2.51355,-0.357393 z"
         id="path1350" />
      <path
         style="fill:#037890;stroke-width:0.264583"
         d="m 154.02444,21.543969 c -1.22907,-0.289082 -1.85845,-1.120932 -1.85845,-2.456337 0,-0.8088 0.17657,-1.264983 0.7018,-1.813206 0.59982,-0.626077 0.65068,-0.794104 0.35002,-1.156375 -0.28425,-0.3425 -0.28958,-0.595858 -0.0278,-1.319905 0.28748,-0.79502 0.2646,-0.955462 -0.20297,-1.423033 -0.70769,-0.707686 -0.95997,-2.224606 -0.58058,-3.4908994 0.45711,-1.5256826 1.24677,-1.8281024 4.77344,-1.8281024 2.74716,0 2.92355,0.031926 2.92355,0.5291667 0,0.4123161 -0.17639,0.5291667 -0.79879,0.5291667 -0.74345,0 -0.78495,0.050402 -0.59898,0.7276042 0.49005,1.7845342 -0.12887,3.5590852 -1.41141,4.0467052 -0.36567,0.139026 -1.17899,0.252774 -1.80739,0.252774 -0.95433,0 -1.16759,0.0958 -1.29462,0.581545 -0.23597,0.90236 0.27798,1.270384 1.7764,1.272014 1.79378,0.002 3.27184,0.433179 3.60251,1.051041 0.49491,0.924734 0.32084,2.825127 -0.32761,3.576789 -0.89776,1.040646 -3.07619,1.425084 -5.21916,0.921052 z m 4.28427,-1.58667 c 0.6946,-0.857795 0.53446,-2.133757 -0.32188,-2.564691 -0.36381,-0.183074 -1.30863,-0.334617 -2.09962,-0.336763 -1.66219,-0.0045 -2.66562,0.685429 -2.65883,1.828158 0.008,1.376485 0.96066,1.914373 3.14876,1.778184 1.11528,-0.06942 1.54355,-0.225706 1.93157,-0.704888 z m -1.07032,-7.311987 c 0.648,-0.58643 0.66106,-2.501801 0.0208,-3.0556715 -0.66897,-0.5787419 -1.53765,-0.7291523 -2.56803,-0.4446506 -0.69038,0.1906244 -0.96965,0.4551884 -1.19216,1.1294181 -0.30942,0.937544 -0.0154,2.20852 0.60174,2.600913 0.58868,0.374313 2.63566,0.224256 3.13762,-0.230009 z M 99.249324,14.670695 V 8.0561112 h 0.661458 c 0.401218,0 0.661458,0.1508305 0.661458,0.3833741 0,0.3347768 0.11631,0.3347768 0.91754,0 1.89195,-0.7905067 3.84516,-0.339185 4.56617,1.0550894 0.57251,1.1071153 0.71887,3.9754923 0.27744,5.4373513 -0.52277,1.731203 -1.6046,2.384602 -3.94819,2.384602 h -1.81296 v 1.984375 c 0,1.940278 -0.0147,1.984375 -0.661458,1.984375 h -0.661458 z m 5.284936,1.065063 c 0.71247,-0.712471 0.87836,-1.537286 0.75353,-3.746553 -0.089,-1.574454 -0.20608,-1.960951 -0.72041,-2.3774308 -0.73526,-0.5953718 -1.82852,-0.6358525 -3.0776,-0.1139555 l -0.91754,0.3833744 v 3.0121119 c 0,1.656662 0.0794,3.091487 0.17639,3.188501 0.097,0.09701 0.87092,0.176389 1.71979,0.176389 1.184,0 1.66506,-0.121658 2.06584,-0.522437 z m 38.10673,-1.065063 c 0,-6.3135811 0.0228,-6.6145838 0.50086,-6.6145838 0.27548,0 0.5679,0.1747036 0.64984,0.38823 0.13095,0.3412509 0.26141,0.3412509 1.07814,0 2.513,-1.0499958 4.43994,-0.063557 4.92694,2.5221868 0.30719,1.631067 0.11337,3.735033 -0.4444,4.824167 -0.57278,1.118428 -1.73165,1.582632 -3.69734,1.481019 l -1.69223,-0.08748 5.3e-4,2.05052 c 5.3e-4,2.010982 -0.0122,2.050521 -0.66091,2.050521 h -0.66145 v -6.614583 z m 5.19596,0.961689 c 0.62715,-0.539449 0.74292,-0.867126 0.8389,-2.37445 0.23074,-3.6238091 -0.78561,-4.6798461 -3.71975,-3.864994 l -0.99219,0.2755442 v 3.2948558 3.294855 h 1.57275 c 1.27225,0 1.71175,-0.119569 2.30029,-0.625811 z m -76.633461,5.117972 c -3.363868,-0.587942 -4.934096,-2.263195 -5.57593,-5.94888 -0.590817,-3.392731 0.149643,-6.9277296 1.819802,-8.6878253 2.152422,-2.2683275 7.108664,-2.9093455 10.5508,-1.3645934 2.611999,1.172204 3.70843,3.7313723 3.460994,8.0782707 -0.135356,2.377866 -0.624033,3.742746 -1.50976,4.216774 -0.867169,0.464094 -2.604146,0.328769 -3.180721,-0.247805 -0.516009,-0.516009 -0.529431,-0.516056 -1.653646,-0.0058 -2.369502,1.07544 -4.409387,0.443432 -4.959284,-1.536514 -0.55817,-2.009738 -0.190418,-5.183559 0.719183,-6.2067895 0.633198,-0.7122959 2.298975,-1.0651191 3.659124,-0.7750275 0.658387,0.1404196 1.167355,0.147598 1.167355,0.016464 0,-0.1278798 0.297656,-0.2325085 0.661458,-0.2325085 h 0.661459 v 3.8040615 c 0,4.228638 0.101004,4.497437 1.634522,4.349929 1.289613,-0.124047 1.644277,-1.060215 1.635688,-4.317532 -0.01331,-5.0511077 -1.723202,-6.8725616 -6.440797,-6.8610758 -3.438266,0.00837 -5.253027,0.8917523 -6.417837,3.1240454 -0.784262,1.5029982 -0.985047,5.8763044 -0.356648,7.7682334 0.873728,2.630551 2.977759,3.774005 6.944413,3.774005 1.979026,0 2.206909,0.05107 2.206909,0.494548 0,0.775223 -2.314486,1.032142 -5.027084,0.55803 z m 3.639169,-4.893901 1.004047,-0.401739 -0.09869,-2.839406 C 75.693733,11.053636 75.544781,9.6655966 75.417008,9.5307776 75.289238,9.3959586 74.576424,9.2768961 73.832982,9.2661943 72.684979,9.2496684 72.390061,9.352709 71.876084,9.9499096 71.138296,10.807158 70.831572,12.617349 71.169363,14.12075 c 0.465765,2.072972 1.549985,2.585287 3.673295,1.735705 z M 2.7771144,16.811283 C 1.7384267,16.177914 1.3534852,15.085344 1.3534852,12.770631 c 0,-3.1348167 0.9281715,-4.4648076 3.2452463,-4.6501628 0.7617294,-0.060935 1.7123294,0.015753 2.1124448,0.1704147 1.0808698,0.4178054 1.783899,1.7581361 1.7850703,3.4032491 l 9.89e-4,1.389063 H 5.4199085 2.3425812 l 0.1579778,0.992187 c 0.095006,0.596689 0.4310858,1.229487 0.843123,1.5875 0.5868522,0.509908 0.9866913,0.595313 2.7870577,0.595313 1.6132171,0 2.1019126,0.0851 2.1019126,0.366016 0,0.848199 -4.1385985,0.990112 -5.4555379,0.187072 z M 7.3525385,11.066004 C 7.1191138,9.6275757 6.5179619,9.1129259 5.0827907,9.1228591 3.4348074,9.1342653 2.4118186,10.036405 2.4118186,11.478301 c 0,0.514524 0.1493575,0.54656 2.5481604,0.54656 h 2.5481607 z m 4.4967835,5.709323 c -0.819747,-0.644814 -1.232468,-1.969814 -1.232468,-3.956716 0,-1.948417 0.383195,-3.2129817 1.208587,-3.9883969 0.604417,-0.5678205 0.924738,-0.6418112 2.778528,-0.6418112 h 2.09535 V 6.0055903 c 0,-2.0064236 0.04276,-2.1828125 0.529167,-2.1828125 0.515332,0 0.529167,0.1763889 0.529167,6.7468752 0,6.570486 -0.01384,6.746875 -0.529167,6.746875 -0.291042,0 -0.529167,-0.172518 -0.529167,-0.383374 0,-0.334777 -0.11631,-0.334777 -0.917543,0 -1.346434,0.562576 -3.106408,0.49194 -3.932454,-0.157827 z m 3.865836,-0.797844 1.000213,-0.27776 -0.07417,-3.226493 -0.07417,-3.2264937 -1.5465,-0.0801 c -2.075018,-0.107474 -2.68269,0.3098409 -3.068113,2.1070077 -0.361394,1.68512 -0.132726,3.441365 0.563281,4.326194 0.576065,0.732348 1.520681,0.843845 3.199462,0.377645 z M 20.66807,12.68632 V 8.0561112 h 0.661458 c 0.401221,0 0.661458,0.1508305 0.661458,0.3833741 0,0.3347768 0.11631,0.3347768 0.917544,0 1.178377,-0.4923573 2.60934,-0.4886401 3.572211,0.00928 0.671314,0.3471497 0.888283,0.3471497 1.87221,0 1.709309,-0.6030796 3.260138,-0.5112158 4.14047,0.2452627 l 0.742358,0.6379165 0.08521,3.9922915 c 0.08302,3.88959 0.0711,3.992293 -0.463021,3.992293 -0.52396,0 -0.54823,-0.13979 -0.54823,-3.157776 0,-3.087723 -0.244025,-4.4343034 -0.876448,-4.8364335 -0.452787,-0.2879059 -1.690746,-0.2526766 -2.800062,0.079683 l -0.959779,0.2875566 0.09861,3.8134849 0.09861,3.813485 h -0.690883 -0.69088 v -3.571875 c 0,-3.219097 -0.05226,-3.624138 -0.529166,-4.1010414 C 25.371488,9.0553629 24.471613,8.9795799 22.983174,9.39294 l -0.992188,0.2755442 v 3.8240218 3.824022 H 21.329528 20.66807 Z m 16.870514,4.216033 c -1.155618,-0.627032 -1.604055,-1.805687 -1.604055,-4.216033 0,-3.4040841 1.001919,-4.6302088 3.783542,-4.6302088 2.744983,0 3.704167,1.1989795 3.704167,4.6302088 0,2.398087 -0.461775,3.651198 -1.553517,4.21576 -1.00529,0.519856 -3.372271,0.520005 -4.330137,2.65e-4 z m 3.756552,-0.903156 c 0.651256,-0.348542 1.068768,-1.642712 1.068768,-3.312877 0,-1.670166 -0.417512,-2.9643352 -1.068768,-3.3128772 -0.624168,-0.3340441 -2.529962,-0.3340441 -3.15413,0 -1.4517,0.7769262 -1.411761,6.1194742 0.05014,6.7076682 0.593243,0.23869 2.604084,0.185624 3.103986,-0.08191 z m 4.772935,-3.312877 c 0,-4.3665901 0.02852,-4.6302088 0.500859,-4.6302088 0.275474,0 0.567899,0.1747036 0.649838,0.38823 0.13095,0.3412509 0.261413,0.3412509 1.078143,0 1.279482,-0.5346017 3.132661,-0.498511 3.840324,0.074791 0.793199,0.6425975 1.060923,2.0682308 1.068273,5.6885418 0.006,2.934569 -0.02335,3.108854 -0.522853,3.108854 -0.49434,0 -0.529582,-0.178493 -0.53548,-2.711979 -0.0072,-3.113074 -0.296037,-4.6698922 -0.955754,-5.1522906 -0.613231,-0.4484045 -2.013768,-0.4281313 -3.147473,0.04556 l -0.917544,0.3833744 v 3.7176682 c 0,3.541278 -0.02511,3.717667 -0.529166,3.717667 -0.509008,0 -0.529167,-0.176389 -0.529167,-4.630208 z m 11.08288,4.233428 C 56.140637,16.370652 55.723045,15.116829 55.740989,12.68632 55.76745,9.1024748 56.845363,7.9385047 59.987364,8.1009256 L 61.6796,8.1884026 61.679044,6.00559 c -5.48e-4,-2.1520925 0.0088,-2.1828125 0.660903,-2.1828125 h 0.661458 v 6.7468755 6.746875 h -0.661458 c -0.401222,0 -0.661458,-0.15083 -0.661458,-0.383374 0,-0.334777 -0.116311,-0.334777 -0.917544,0 -1.152287,0.481456 -2.710111,0.475671 -3.609994,-0.01341 z m 3.70222,-0.954778 0.841145,-0.293225 -0.07406,-3.212504 -0.07406,-3.2125047 -1.443255,-0.081852 c -2.609858,-0.1480146 -3.310752,0.7600138 -3.14348,4.0724727 0.08731,1.728987 0.191021,2.092017 0.720034,2.520386 0.695667,0.563317 1.922415,0.643418 3.173675,0.207227 z M 83.90349,12.68632 c 0,-4.3665901 0.02852,-4.6302088 0.500859,-4.6302088 0.275473,0 0.570989,0.1827575 0.656706,0.4061275 0.140108,0.3651147 0.235156,0.3651147 0.941208,0 1.010952,-0.5227828 2.910612,-0.5213747 3.658851,0.00271 0.526437,0.3687305 0.701839,0.3687305 1.787909,0 1.526979,-0.5184225 3.285033,-0.5238433 4.015248,-0.01238 0.775663,0.5432939 1.139219,2.4473943 1.139219,5.9665633 v 2.897394 h -0.661458 -0.661458 v -3.571875 c 0,-3.219097 -0.05226,-3.624138 -0.529167,-4.1010418 C 94.156806,9.0490105 92.909264,8.9540378 91.615888,9.4049108 L 90.782657,9.695377 v 3.810576 c 0,3.582996 -0.03038,3.810575 -0.508667,3.810575 -0.472212,0 -0.514877,-0.254057 -0.595313,-3.544953 -0.07428,-3.039194 -0.158554,-3.62429 -0.590674,-4.1010416 C 88.488206,9.008783 87.213954,8.9401924 85.879366,9.4978187 l -0.917543,0.3833744 v 3.7176679 c 0,3.541278 -0.02511,3.717667 -0.529167,3.717667 -0.509008,0 -0.529166,-0.176389 -0.529166,-4.630208 z m 26.10625,4.089007 c -0.81974,-0.644814 -1.23247,-1.969814 -1.23247,-3.956716 0,-1.948417 0.3832,-3.2129817 1.20859,-3.9883969 0.60442,-0.5678205 0.92474,-0.6418112 2.77853,-0.6418112 h 2.09535 V 6.0055903 c 0,-2.0064236 0.0428,-2.1828125 0.52917,-2.1828125 0.51533,0 0.52916,0.1763889 0.52916,6.7468752 0,6.570486 -0.0138,6.746875 -0.52916,6.746875 -0.29104,0 -0.52917,-0.172518 -0.52917,-0.383374 0,-0.334777 -0.11631,-0.334777 -0.91754,0 -1.34644,0.562576 -3.10641,0.49194 -3.93246,-0.157827 z m 3.86584,-0.797844 1.00021,-0.27776 -0.0742,-3.226493 -0.0742,-3.2264937 -1.5465,-0.0801 c -2.07502,-0.107474 -2.68269,0.3098409 -3.06811,2.1070077 -0.3614,1.68512 -0.13273,3.441365 0.56328,4.326194 0.57606,0.732348 1.52068,0.843845 3.19946,0.377645 z m 5.21749,-5.40783 c 0,-6.5704863 0.0138,-6.7468752 0.52917,-6.7468752 0.51533,0 0.52917,0.1763889 0.52917,6.7468752 0,6.570486 -0.0138,6.746875 -0.52917,6.746875 -0.51533,0 -0.52917,-0.176389 -0.52917,-6.746875 z m 3.96876,5.688542 c 0,-0.9525 0.0661,-1.058334 0.66145,-1.058334 0.59532,0 0.66146,0.105834 0.66146,1.058334 0,0.9525 -0.0661,1.058333 -0.66146,1.058333 -0.59531,0 -0.66145,-0.105833 -0.66145,-1.058333 z m 4.23333,-3.571875 c 0,-4.4538198 0.0202,-4.6302088 0.52917,-4.6302088 0.29104,0 0.52916,0.1725184 0.52916,0.3833741 0,0.3347768 0.11631,0.3347768 0.91755,0 1.2102,-0.5056544 3.0492,-0.4876257 3.79855,0.037239 0.54885,0.3844287 0.69095,0.3844287 1.65173,0 2.03816,-0.8155118 4.14813,-0.4304499 4.74164,0.8653335 0.17595,0.3841354 0.38534,2.3355382 0.46532,4.3364492 l 0.14541,3.638021 h -0.68073 -0.68072 l -0.0862,-3.726061 c -0.0769,-3.325915 -0.14129,-3.7663314 -0.59973,-4.1010423 -0.62238,-0.4544119 -2.1233,-0.4679591 -3.15214,-0.028451 l -0.75531,0.322662 0.0401,3.7664453 c 0.0379,3.559161 0.012,3.766446 -0.47081,3.766446 -0.47435,0 -0.51839,-0.254424 -0.61475,-3.551832 -0.088,-3.011467 -0.17941,-3.635387 -0.60082,-4.1010412 -0.56341,-0.6225654 -1.56617,-0.7011808 -3.09629,-0.242746 L 128.3534,9.7273713 V 13.52195 c 0,3.618189 -0.0246,3.794578 -0.52916,3.794578 -0.50901,0 -0.52917,-0.176389 -0.52917,-4.630208 z m 34.66042,3.571875 c 0,-0.9525 0.0661,-1.058334 0.66146,-1.058334 0.59531,0 0.66145,0.105834 0.66145,1.058334 0,0.9525 -0.0661,1.058333 -0.66145,1.058333 -0.59532,0 -0.66146,-0.105833 -0.66146,-1.058333 z m 5.08444,0.645397 c -1.00086,-0.701033 -1.38028,-1.786276 -1.38028,-3.948048 0,-2.171857 0.38331,-3.407954 1.31418,-4.2379744 0.48715,-0.4343702 0.96767,-0.5291667 2.68235,-0.5291667 h 2.08889 V 6.0055903 c 0,-2.0064236 0.0428,-2.1828125 0.52917,-2.1828125 0.51533,0 0.52916,0.1763889 0.52916,6.7468752 0,6.570486 -0.0138,6.746875 -0.52916,6.746875 -0.29104,0 -0.52917,-0.172518 -0.52917,-0.383374 0,-0.334777 -0.11631,-0.334777 -0.91754,0 -1.20361,0.502898 -3.04796,0.488503 -3.7876,-0.02956 z m 3.69005,-0.954194 1.03067,-0.308798 -0.0739,-3.196932 -0.0739,-3.1969317 -1.5465,-0.0801 c -1.06457,-0.055138 -1.74155,0.047705 -2.17242,0.330022 -1.32368,0.8673087 -1.5524,4.8543727 -0.35179,6.1323697 0.66292,0.70564 1.59076,0.798885 3.18791,0.32037 z m 6.14289,0.861885 c -1.03869,-0.633369 -1.42363,-1.725939 -1.42363,-4.040652 0,-3.1348167 0.92817,-4.4648076 3.24525,-4.6501628 0.76172,-0.060935 1.71232,0.015753 2.11244,0.1704147 1.08087,0.4178054 1.7839,1.7581361 1.78507,3.4032491 l 9.9e-4,1.389063 h -3.07733 -3.07732 l 0.15797,0.992187 c 0.095,0.596689 0.43109,1.229487 0.84312,1.5875 0.58686,0.509908 0.9867,0.595313 2.78706,0.595313 1.61322,0 2.10192,0.0851 2.10192,0.366016 0,0.848199 -4.1386,0.990112 -5.45554,0.187072 z m 4.57542,-5.745279 c -0.23342,-1.4384283 -0.83458,-1.9530781 -2.26975,-1.9431449 -1.64798,0.011406 -2.67097,0.9135459 -2.67097,2.3554419 0,0.514524 0.14936,0.54656 2.54816,0.54656 h 2.54816 z"
         id="path1348" />
      <path
         style="fill:#06715c;stroke-width:0.264583"
         d="m 154.02444,21.558302 c -1.23371,-0.309399 -1.85845,-1.139943 -1.85845,-2.47067 0,-0.8088 0.17657,-1.264983 0.7018,-1.813206 0.59982,-0.626077 0.65068,-0.794104 0.35002,-1.156375 -0.28425,-0.3425 -0.28958,-0.595858 -0.0278,-1.319905 0.28748,-0.79502 0.2646,-0.955462 -0.20297,-1.423033 -0.70769,-0.707686 -0.95997,-2.224606 -0.58058,-3.4908994 0.45275,-1.5111379 1.25745,-1.8281024 4.64115,-1.8281024 2.61487,0 2.79126,0.03344 2.79126,0.5291667 0,0.4129373 -0.17639,0.5291667 -0.80306,0.5291667 -0.71197,0 -0.77199,0.058047 -0.52916,0.5117727 0.34707,0.6485207 0.3525,2.1574267 0.011,3.0556757 -0.31596,0.831058 -1.67814,1.459635 -3.16314,1.459635 -0.90533,0 -1.08569,0.09525 -1.22403,0.646421 -0.24792,0.987788 0.0518,1.204357 1.68913,1.220596 1.95726,0.01941 3.26169,0.483328 3.67775,1.307983 0.70542,1.398159 0.23024,3.209903 -1.01011,3.851312 -0.9276,0.479681 -3.28474,0.685912 -4.46283,0.390462 z m 4.27967,-1.59532 c 0.69912,-0.863371 0.54177,-2.138078 -0.31728,-2.570374 -0.36381,-0.183074 -1.38715,-0.334617 -2.2741,-0.336763 -1.98463,-0.0048 -2.56696,0.476051 -2.43978,2.014583 0.11006,1.331273 0.86553,1.741396 2.96729,1.610863 1.24936,-0.07759 1.66109,-0.220893 2.06387,-0.718309 z m -1.06572,-7.31767 c 0.6857,-0.620548 0.65798,-2.497519 -0.0463,-3.1348764 -0.78671,-0.7119633 -2.87489,-0.6286831 -3.4969,0.1394619 -0.63574,0.7850995 -0.60655,2.2392915 0.0583,2.9041305 0.67862,0.67862 2.77522,0.733539 3.4849,0.09128 z m -57.989066,2.025383 c 0,-6.4381948 0.0141,-6.6145838 0.529167,-6.6145838 0.293979,0 0.529169,0.176389 0.529169,0.396875 0,0.4867702 -0.0152,0.4867702 1.14981,0 1.2291,-0.5135496 2.80939,-0.5064106 3.55533,0.01606 1.02206,0.71588 1.38027,1.7794148 1.38027,4.0980018 0,3.72777 -0.9373,4.74948 -4.35712,4.74948 h -1.72829 v 1.984375 c 0,1.807986 -0.047,1.984375 -0.529169,1.984375 -0.515057,0 -0.529167,-0.176389 -0.529167,-6.614583 z m 5.284936,1.065063 c 0.71247,-0.712471 0.87836,-1.537286 0.75353,-3.746553 -0.089,-1.574454 -0.20608,-1.960951 -0.72041,-2.3774308 -0.73401,-0.594365 -2.08237,-0.6403388 -3.34218,-0.1139555 l -0.91754,0.3833744 v 3.0121119 c 0,1.656662 0.0794,3.091487 0.17639,3.188501 0.097,0.09701 0.93045,0.176389 1.85208,0.176389 1.31572,0 1.78793,-0.11223 2.19813,-0.522437 z m 38.10673,-1.065063 c 0,-6.4381948 0.0141,-6.6145838 0.52917,-6.6145838 0.29398,0 0.52917,0.176389 0.52917,0.396875 0,0.4867702 -0.0152,0.4867702 1.14981,0 2.19511,-0.9171757 4.13572,-0.2235851 4.66043,1.6656808 0.38566,1.388582 0.34001,4.151252 -0.0852,5.155838 -0.65217,1.540831 -1.31514,1.904324 -3.5695,1.957076 l -2.02327,0.04734 -0.0773,2.003176 c -0.0689,1.78613 -0.1334,2.003176 -0.59531,2.003176 -0.50051,0 -0.51804,-0.223758 -0.51804,-6.614583 z m 5.19596,0.961689 c 0.62715,-0.539449 0.74292,-0.867126 0.8389,-2.37445 0.13184,-2.070601 -0.0428,-2.913948 -0.74992,-3.6210527 -0.62684,-0.626845 -2.0032,-0.6846858 -3.30906,-0.1390626 l -0.91754,0.3833744 v 3.0121119 c 0,1.656662 0.0794,3.091487 0.17639,3.188501 0.097,0.09701 0.86428,0.176389 1.70503,0.176389 1.22589,0 1.67275,-0.123948 2.2562,-0.625811 z m -76.633461,5.117972 c -3.363868,-0.587942 -4.934096,-2.263195 -5.57593,-5.94888 -0.590817,-3.392731 0.149643,-6.9277296 1.819802,-8.6878253 2.665894,-2.809449 9.353682,-2.9551256 12.046405,-0.2624006 1.313763,1.3137614 1.868239,3.1072726 1.867715,6.0413199 -7.93e-4,3.906708 -0.820824,5.423958 -2.93184,5.423958 -0.799052,0 -1.303999,-0.163264 -1.685806,-0.54507 l -0.545071,-0.545071 -1.125963,0.545071 c -2.293424,1.110228 -4.364797,0.470968 -4.917057,-1.517486 -0.55817,-2.009737 -0.190418,-5.183559 0.719183,-6.206789 0.633198,-0.7122959 2.298975,-1.0651191 3.659124,-0.7750276 0.658387,0.1404202 1.167355,0.1475986 1.167355,0.016464 0,-0.1278798 0.238125,-0.2325085 0.529167,-0.2325085 0.500602,0 0.529166,0.176389 0.529166,3.2678101 0,1.797295 0.132861,3.648936 0.295246,4.114757 0.275363,0.789904 0.368784,0.841567 1.387089,0.767086 1.530525,-0.111948 1.861505,-0.882592 1.852459,-4.313194 -0.0136,-5.1576327 -1.714153,-6.8933796 -6.728182,-6.8674356 -4.275141,0.022122 -6.31702,1.6993775 -6.935839,5.6972876 -0.367752,2.375879 0.06475,5.222567 1.011111,6.655025 1.060593,1.60537 2.422798,2.14374 5.744679,2.270411 2.496582,0.0952 2.844271,0.165336 2.844271,0.573738 0,0.744519 -2.367738,0.993564 -5.027084,0.52876 z m 3.641781,-4.894945 1.006657,-0.402784 -0.09174,-2.70607 C 75.709722,11.258218 75.624613,9.9035242 75.571054,9.7361258 75.43714,9.3176028 73.624969,9.0603611 72.658697,9.32271 c -1.04504,0.283735 -1.718844,1.621063 -1.719381,3.412531 -0.0011,3.155526 1.273405,4.173507 3.905954,3.12017 z M 2.7771144,16.811283 C 1.7384267,16.177914 1.3534852,15.085344 1.3534852,12.770631 c 0,-3.071108 0.9215312,-4.4381998 3.1350807,-4.6508941 2.5151552,-0.2416744 4.0086697,1.215257 4.0086697,3.9104781 v 1.05298 H 5.4545271 2.4118186 v 0.938068 c 0,0.643196 0.2041424,1.142211 0.6494319,1.5875 0.5881903,0.58819 0.8626426,0.649432 2.9104167,0.649432 1.7486543,0 2.2609851,0.08294 2.2609851,0.366016 0,0.848199 -4.1385985,0.990112 -5.4555379,0.187072 z M 7.3525385,11.066004 C 7.1157528,9.6068646 6.5233224,9.1144446 5.0046185,9.1144446 c -1.5761191,0 -2.5927999,0.8252653 -2.5927999,2.1046404 v 0.805776 H 4.959979 7.5081397 Z m 4.4967835,5.709323 c -0.819747,-0.644814 -1.232468,-1.969814 -1.232468,-3.956716 0,-1.948417 0.383195,-3.2129817 1.208587,-3.9883969 0.604417,-0.5678205 0.924738,-0.6418112 2.778528,-0.6418112 h 2.09535 V 6.0055903 c 0,-2.0064236 0.04276,-2.1828125 0.529167,-2.1828125 0.515332,0 0.529167,0.1763889 0.529167,6.7468752 0,6.570486 -0.01384,6.746875 -0.529167,6.746875 -0.293981,0 -0.529167,-0.176389 -0.529167,-0.396875 0,-0.218281 -0.04499,-0.396875 -0.09998,-0.396875 -0.05499,0 -0.527415,0.178594 -1.049836,0.396875 -1.351202,0.564568 -2.874504,0.505152 -3.700181,-0.144326 z m 3.865836,-0.797844 1.000213,-0.27776 -0.07417,-3.226493 -0.07417,-3.2264937 -1.625076,-0.07803 c -2.223958,-0.1067853 -2.96742,0.5074949 -3.185123,2.6316857 -0.38825,3.788266 0.808985,5.051668 3.958329,4.177091 z M 20.66807,12.68632 c 0,-4.4538198 0.02016,-4.6302088 0.529166,-4.6302088 0.293982,0 0.529167,0.176389 0.529167,0.396875 0,0.4867702 -0.01519,0.4867702 1.149815,0 1.231712,-0.5146421 2.809823,-0.5061087 3.559877,0.019251 0.541991,0.3796255 0.712198,0.3768995 1.940505,-0.031079 1.523008,-0.5058614 3.497252,-0.4051581 4.112165,0.2097558 0.615973,0.6159739 0.866195,2.208681 0.872992,5.556761 0.006,2.934568 -0.02335,3.108853 -0.522853,3.108853 -0.499608,0 -0.529167,-0.176389 -0.529167,-3.157776 0,-3.087723 -0.244025,-4.4343038 -0.876448,-4.8364339 C 30.970255,9.0278952 29.335074,9.072134 28.380468,9.4049108 L 27.547237,9.695377 v 3.810576 c 0,3.634186 -0.02449,3.810575 -0.529167,3.810575 -0.503035,0 -0.529167,-0.176389 -0.529167,-3.571875 0,-3.219097 -0.05226,-3.624138 -0.529166,-4.1010417 -0.633741,-0.6337409 -2.003791,-0.6939807 -3.31579,-0.1457926 l -0.917544,0.3833744 v 3.7176679 c 0,3.541278 -0.02511,3.717667 -0.529167,3.717667 -0.509008,0 -0.529166,-0.176389 -0.529166,-4.630208 z m 16.870514,4.230893 c -1.15964,-0.653007 -1.604055,-1.825208 -1.604055,-4.230893 0,-3.5508294 1.108152,-4.791639 4.086923,-4.576174 2.43966,0.1764692 3.397835,1.4669284 3.397835,4.576174 0,3.178092 -0.963795,4.42872 -3.511328,4.556335 -1.123203,0.05626 -1.874869,-0.04698 -2.369375,-0.325442 z m 3.756552,-0.918016 c 0.651256,-0.348542 1.068768,-1.642712 1.068768,-3.312877 0,-1.670166 -0.417512,-2.9643352 -1.068768,-3.3128772 -0.805453,-0.4310644 -2.781039,-0.3078435 -3.425024,0.2136254 -1.204502,0.9753468 -1.273897,4.8962408 -0.107304,6.0628338 0.458779,0.458779 0.908169,0.608293 1.828339,0.608293 0.671023,0 1.43782,-0.116549 1.703989,-0.258998 z m 4.772935,-3.312877 c 0,-4.4538198 0.02016,-4.6302088 0.529167,-4.6302088 0.293981,0 0.529166,0.176389 0.529166,0.396875 0,0.4867702 -0.01519,0.4867702 1.149816,0 1.447808,-0.6049333 2.920717,-0.5114144 3.796369,0.2410418 l 0.742357,0.6379165 0.08521,3.9922925 c 0.07448,3.489766 0.03285,3.992291 -0.330729,3.992291 -0.350731,0 -0.416928,-0.425158 -0.422251,-2.711979 C 52.135062,9.3997393 51.420891,8.475846 48.118592,9.39294 l -0.992188,0.2755442 v 3.8240218 c 0,3.647633 -0.02441,3.824022 -0.529166,3.824022 -0.509008,0 -0.529167,-0.176389 -0.529167,-4.630208 z m 11.08288,4.233428 c -1.010314,-0.549096 -1.427906,-1.802919 -1.409962,-4.233428 0.02652,-3.5919123 1.130433,-4.7789292 4.259078,-4.579712 l 1.678422,0.1068737 v -2.195352 c 0,-2.018963 0.04252,-2.1953519 0.529166,-2.1953519 0.515332,0 0.529167,0.1763889 0.529167,6.7468752 0,6.570486 -0.01384,6.746875 -0.529167,6.746875 -0.291041,0 -0.529166,-0.172518 -0.529166,-0.383374 0,-0.334777 -0.116311,-0.334777 -0.917544,0 -1.152287,0.481456 -2.710111,0.475671 -3.609994,-0.01341 z m 3.70222,-0.954778 0.841145,-0.293225 -0.07406,-3.212504 -0.07406,-3.2125047 -1.5465,-0.0801 c -1.064567,-0.055138 -1.741554,0.047705 -2.172423,0.330022 -1.323681,0.8673087 -1.552398,4.8543727 -0.351782,6.1323697 0.661149,0.703762 1.953758,0.832324 3.377679,0.335942 z M 83.90349,12.68632 c 0,-4.4538198 0.02016,-4.6302088 0.529166,-4.6302088 0.293982,0 0.529167,0.176389 0.529167,0.396875 0,0.4871223 0.206203,0.4871223 1.058334,0 0.874196,-0.4997357 2.481315,-0.4955394 3.457038,0.00903 0.705471,0.3648134 0.905951,0.3648134 1.980483,0 1.778092,-0.6036778 3.124819,-0.5256908 4.00658,0.2320153 l 0.742357,0.6379165 0.08521,3.992292 c 0.08302,3.889587 0.0711,3.99229 -0.46302,3.99229 -0.527511,0 -0.54823,-0.13499 -0.54823,-3.571875 0,-3.219097 -0.05226,-3.624138 -0.529167,-4.1010413 C 94.168519,9.0607233 93.046734,8.9661821 91.57265,9.3757138 l -0.929802,0.2583182 0.09933,3.841248 c 0.09615,3.718651 0.08215,3.841248 -0.438764,3.841248 -0.509977,0 -0.542616,-0.185198 -0.624735,-3.544953 -0.07428,-3.039194 -0.158554,-3.62429 -0.590674,-4.1010416 C 88.518715,9.0424433 87.151253,8.9321382 85.795054,9.4049108 L 84.961823,9.695377 v 3.810576 c 0,3.634186 -0.0245,3.810575 -0.529167,3.810575 -0.509008,0 -0.529166,-0.176389 -0.529166,-4.630208 z m 26.10625,4.089007 c -0.81974,-0.644814 -1.23247,-1.969814 -1.23247,-3.956716 0,-1.948417 0.3832,-3.2129817 1.20859,-3.9883969 0.60442,-0.5678205 0.92474,-0.6418112 2.77853,-0.6418112 h 2.09535 V 6.0055903 c 0,-2.0064236 0.0428,-2.1828125 0.52917,-2.1828125 0.51533,0 0.52916,0.1763889 0.52916,6.7468752 0,6.570486 -0.0138,6.746875 -0.52916,6.746875 -0.29398,0 -0.52917,-0.176389 -0.52917,-0.396875 0,-0.218281 -0.045,-0.396875 -0.1,-0.396875 -0.055,0 -0.52741,0.178594 -1.04983,0.396875 -1.35121,0.564568 -2.87451,0.505152 -3.70019,-0.144326 z m 3.86584,-0.797844 1.00021,-0.27776 -0.0742,-3.226493 -0.0742,-3.2264937 -1.62508,-0.07803 c -2.22395,-0.1067853 -2.96742,0.5074949 -3.18512,2.6316857 -0.38825,3.788266 0.80899,5.051668 3.95833,4.177091 z m 5.21749,-5.40783 c 0,-6.5704863 0.0138,-6.7468752 0.52917,-6.7468752 0.51533,0 0.52917,0.1763889 0.52917,6.7468752 0,6.570486 -0.0138,6.746875 -0.52917,6.746875 -0.51533,0 -0.52917,-0.176389 -0.52917,-6.746875 z m 3.96876,5.688542 c 0,-0.9525 0.0661,-1.058334 0.66145,-1.058334 0.59532,0 0.66146,0.105834 0.66146,1.058334 0,0.9525 -0.0661,1.058333 -0.66146,1.058333 -0.59531,0 -0.66145,-0.105833 -0.66145,-1.058333 z m 4.23333,-3.571875 c 0,-4.4538198 0.0202,-4.6302088 0.52917,-4.6302088 0.29104,0 0.52916,0.1725184 0.52916,0.3833741 0,0.3347768 0.11631,0.3347768 0.91755,0 1.21408,-0.5072771 2.66434,-0.4855202 3.57711,0.053665 0.68786,0.4063294 0.8166,0.4063294 1.83212,0 0.60074,-0.2403713 1.57393,-0.4370388 2.16264,-0.4370388 2.40324,0 2.88767,0.9750608 2.88767,5.8123355 0,3.22655 -0.0327,3.448081 -0.50917,3.448081 -0.47432,0 -0.51507,-0.255013 -0.59532,-3.726061 -0.0769,-3.325915 -0.14129,-3.7663307 -0.59973,-4.1010416 -0.60759,-0.4436108 -2.12698,-0.487638 -3.25524,-0.094327 l -0.80508,0.2806539 0.14301,3.8203877 c 0.13888,3.710406 0.12753,3.820388 -0.39438,3.820388 -0.50828,0 -0.54301,-0.192358 -0.64118,-3.551832 -0.088,-3.011467 -0.17941,-3.635387 -0.60082,-4.1010415 -0.56204,-0.621052 -1.93623,-0.7292587 -3.28595,-0.2587435 l -0.83323,0.2904662 v 3.8105758 c 0,3.634186 -0.0245,3.810575 -0.52916,3.810575 -0.50901,0 -0.52917,-0.176389 -0.52917,-4.630208 z m 34.66042,3.571875 c 0,-0.881945 0.0882,-1.058334 0.52916,-1.058334 0.44098,0 0.52917,0.176389 0.52917,1.058334 0,0.881944 -0.0882,1.058333 -0.52917,1.058333 -0.44097,0 -0.52916,-0.176389 -0.52916,-1.058333 z m 5.08444,0.645397 c -1.00086,-0.701033 -1.38028,-1.786276 -1.38028,-3.948048 0,-2.17258 0.38347,-3.4084715 1.31493,-4.2379744 0.48766,-0.4342755 0.96867,-0.5291667 2.68241,-0.5291667 h 2.0882 l -6e-5,-2.1828126 c -5e-5,-2.0064433 0.0427,-2.1828125 0.52911,-2.1828125 0.51533,0 0.52916,0.1763889 0.52916,6.7468752 0,6.570486 -0.0138,6.746875 -0.52916,6.746875 -0.29398,0 -0.52917,-0.176389 -0.52917,-0.396875 0,-0.218281 -0.045,-0.396875 -0.1,-0.396875 -0.055,0 -0.52741,0.178594 -1.04983,0.396875 -1.2291,0.51355 -2.8094,0.506411 -3.55533,-0.01606 z m 3.69005,-0.954194 1.03067,-0.308798 -0.0739,-3.196932 -0.0739,-3.1969317 -1.57712,-0.081013 c -0.88967,-0.045701 -1.83807,0.05865 -2.17581,0.2394003 -0.83985,0.4494773 -1.2165,1.8264514 -1.09376,3.9986504 0.0878,1.553802 0.20613,1.94158 0.71926,2.357091 0.70421,0.57023 1.76492,0.631864 3.24463,0.188533 z m 6.14289,0.861885 c -1.03869,-0.633369 -1.42363,-1.725939 -1.42363,-4.040652 0,-3.071108 0.92153,-4.4381998 3.13508,-4.6508941 2.51515,-0.2416744 4.00867,1.215257 4.00867,3.9104781 v 1.05298 h -3.04271 -3.04271 v 0.938068 c 0,0.643196 0.20414,1.142211 0.64943,1.5875 0.58819,0.58819 0.86265,0.649432 2.91042,0.649432 1.74865,0 2.26099,0.08294 2.26099,0.366016 0,0.848199 -4.1386,0.990112 -5.45554,0.187072 z m 4.57542,-5.745279 c -0.23678,-1.4591394 -0.82922,-1.9515594 -2.34792,-1.9515594 -1.57612,0 -2.5928,0.8252653 -2.5928,2.1046404 v 0.805776 h 2.54816 2.54816 z"
         id="path1346" />
    </g>
  </g>
</svg>
